<svg version="1.1" id="Layer_1" xmlns="http://www.w3.org/2000/svg" xmlns:xlink="http://www.w3.org/1999/xlink" x="0px" y="0px"
	 width="100%" viewBox="0 0 2000 816" enable-background="new 0 0 2000 816" xml:space="preserve">
<path fill="#000000" opacity="1.000000" stroke="none" 
	d="
M1482.000000,817.000000 
	C988.000061,817.000000 494.500183,817.000000 1.000199,817.000000 
	C1.000132,545.000122 1.000132,273.000275 1.000066,1.000308 
	C667.666443,1.000206 1334.332886,1.000206 2000.999512,1.000103 
	C2000.999634,272.999695 2000.999634,544.999390 2000.999756,816.999512 
	C1828.166626,817.000000 1655.333374,817.000000 1482.000000,817.000000 
M1174.027344,310.021149 
	C1126.021606,309.983551 1078.015991,309.945953 1030.003296,308.982544 
	C1030.003296,227.090149 1030.003296,145.197754 1030.003296,63.245987 
	C1015.680359,63.245987 1002.087830,63.245987 988.298462,63.245987 
	C988.298462,159.849625 988.298462,256.204773 988.298462,352.653198 
	C1051.627808,352.653198 1114.654663,352.653198 1177.999634,352.653198 
	C1177.999634,338.973145 1178.049194,325.665253 1177.869629,312.360443 
	C1177.859497,311.608734 1175.967407,310.882416 1174.027344,310.021149 
M1543.960327,632.888550 
	C1544.001465,650.266357 1544.042603,667.644165 1544.076538,685.569519 
	C1544.375977,685.757751 1544.675415,685.945984 1544.994507,687.007019 
	C1544.236694,706.759827 1562.322144,725.118774 1583.176880,725.023621 
	C1605.505859,724.921814 1627.835693,725.044006 1650.164917,724.977173 
	C1657.013672,724.956726 1663.145752,722.604065 1668.805664,718.764832 
	C1676.468018,713.567383 1681.671875,706.394775 1686.180054,698.298828 
	C1686.180054,707.066223 1686.180054,715.833618 1686.180054,724.658997 
	C1699.939819,724.658997 1713.324463,724.658997 1727.002075,724.658997 
	C1727.002075,722.507629 1727.002075,720.696045 1727.002075,718.884521 
	C1727.002686,664.060791 1727.023926,609.237061 1726.961304,554.413391 
	C1726.956787,550.497192 1726.566650,546.546387 1725.967407,542.671753 
	C1722.956177,523.196289 1705.923828,510.165192 1687.835205,510.068359 
	C1646.177002,509.845367 1604.516846,509.998138 1562.857422,509.998505 
	C1561.072754,509.998505 1559.287964,509.998505 1557.283936,509.998505 
	C1557.283936,523.913086 1557.283936,537.297974 1557.283936,551.223145 
	C1600.283813,551.223145 1643.000610,551.223145 1685.722900,551.223145 
	C1685.722900,564.688721 1685.722900,577.611511 1685.722900,590.999329 
	C1683.472046,590.999329 1681.512695,590.999451 1679.553467,590.999390 
	C1648.058960,590.998291 1616.556274,591.434387 1585.072876,590.842590 
	C1563.983643,590.446289 1543.396729,609.428650 1544.486206,631.066345 
	C1544.363281,631.363342 1544.240356,631.660400 1543.960327,632.888550 
M34.001064,500.427856 
	C38.003529,512.634766 41.198563,525.184631 46.202446,536.966187 
	C53.265381,553.595825 60.871323,570.102539 69.693062,585.850647 
	C81.169167,606.337280 94.694191,625.617737 111.142426,642.527222 
	C124.140831,655.890137 137.031921,669.518433 151.300034,681.437561 
	C164.194611,692.209290 178.747589,701.041016 192.826218,710.339294 
	C212.096558,723.066345 233.140381,732.267334 254.805817,740.018616 
	C280.203033,749.105042 306.229156,755.805420 333.189728,757.915405 
	C349.033173,759.155334 364.956360,759.766418 380.848480,759.861633 
	C392.207764,759.929688 403.604218,758.980652 414.929810,757.910767 
	C424.831482,756.975342 434.853760,756.037537 444.472656,753.675232 
	C460.536896,749.729919 476.455475,745.059265 492.194763,739.952393 
	C519.561646,731.072693 544.823975,717.712219 568.660889,701.749634 
	C591.387695,686.530334 612.688660,669.527344 630.722046,648.765137 
	C639.001953,639.232300 647.815369,630.082642 655.301819,619.957031 
	C672.699646,596.426147 687.234192,571.217346 698.559937,544.107178 
	C713.813232,507.595459 722.305298,469.557404 724.779846,430.248962 
	C725.767395,414.562225 725.000854,398.674438 723.826660,382.968323 
	C722.706848,367.989746 720.444092,353.056000 717.926208,338.231201 
	C713.159729,310.167542 703.575500,283.595428 691.427795,257.941681 
	C680.779663,235.454636 668.145813,214.123550 652.344360,194.848602 
	C642.135193,182.395248 631.878235,169.899399 620.656555,158.383514 
	C611.497620,148.984528 601.088806,140.748398 590.856628,132.462967 
	C574.604553,119.302948 557.106750,107.957008 538.582397,98.221237 
	C519.161255,88.014130 499.120544,79.154198 478.005707,73.215836 
	C462.214996,68.774818 446.118805,65.311310 430.017548,62.125362 
	C420.877716,60.316872 411.469391,59.761307 402.153931,58.972694 
	C391.975159,58.111000 381.764252,57.135406 371.566925,57.130081 
	C362.034790,57.125099 352.481720,58.118752 342.974823,59.050129 
	C331.563324,60.168091 319.929169,60.599110 308.858826,63.266994 
	C288.846741,68.089775 268.974792,73.725113 249.424652,80.174149 
	C225.979675,87.907959 204.050980,99.279770 183.681046,113.129524 
	C168.447937,123.486694 153.831787,134.908463 139.879089,146.943817 
	C127.890045,157.285370 116.364899,168.442642 106.212563,180.561127 
	C94.990059,193.957047 85.364807,208.720200 75.405273,223.137512 
	C63.689430,240.097198 54.843346,258.672424 47.267517,277.730865 
	C37.764492,301.637543 30.212357,326.229370 26.999279,351.878784 
	C24.961401,368.146790 22.366463,384.501038 22.322489,400.822784 
	C22.269402,420.526733 24.006386,440.309479 26.203146,459.919830 
	C27.698004,473.264343 31.312147,486.371460 34.001064,500.427856 
M1184.189697,478.038544 
	C1184.790894,479.170624 1185.842896,480.276520 1185.910400,481.439575 
	C1186.132324,485.259369 1185.998413,489.099945 1185.998901,492.932526 
	C1185.999756,500.192780 1185.999023,507.453033 1185.999023,514.731873 
	C1200.323608,514.731873 1213.914673,514.731873 1228.006104,514.731873 
	C1228.006104,506.848297 1228.142700,499.224823 1227.968018,491.608521 
	C1227.789917,483.844757 1228.130249,475.942627 1226.792969,468.356903 
	C1223.471436,449.517242 1203.826538,435.542999 1186.078003,435.764160 
	C1133.262939,436.422211 1080.434448,435.993256 1027.611206,436.002655 
	C1006.597534,436.006378 988.060730,454.314606 988.032593,475.758209 
	C987.941589,545.078186 987.985352,614.398315 988.042053,683.718323 
	C988.044739,686.978271 988.338257,690.313416 989.060730,693.484924 
	C993.267395,711.949951 1009.695129,724.991455 1028.121704,724.996033 
	C1081.111572,725.009155 1134.101440,725.017151 1187.091309,724.956543 
	C1190.174438,724.953003 1193.334595,724.646362 1196.326538,723.928772 
	C1211.324463,720.331787 1222.598633,710.918762 1225.490234,696.323303 
	C1228.694946,680.148926 1227.953857,663.192810 1228.944458,646.344604 
	C1213.763672,646.344604 1200.054810,646.344604 1185.744507,646.344604 
	C1185.744507,658.731201 1185.744507,670.784546 1185.744507,682.672607 
	C1133.555054,682.672607 1081.970459,682.672607 1030.400024,682.672607 
	C1030.400024,614.310913 1030.400024,546.276733 1030.400024,478.010864 
	C1081.613159,478.010864 1132.425537,478.010864 1184.189697,478.038544 
M1316.500000,352.999817 
	C1345.907227,352.999817 1375.314331,352.999817 1404.733154,352.999817 
	C1404.733154,339.015259 1404.733154,325.757935 1404.733154,311.920166 
	C1357.438599,311.920166 1310.407593,311.920166 1263.410645,311.920166 
	C1263.410645,296.293365 1263.410645,281.254028 1263.410645,265.815369 
	C1310.731934,265.815369 1357.643555,265.815369 1404.551392,265.815369 
	C1404.750977,264.962738 1404.955566,264.495941 1404.955933,264.028992 
	C1404.980835,233.709854 1405.172241,203.388535 1404.812744,173.073761 
	C1404.755249,168.231079 1402.990112,163.012985 1400.695190,158.664825 
	C1393.043579,144.167374 1380.130127,137.198334 1364.205444,137.141785 
	C1328.801025,137.016052 1293.393677,137.643875 1257.988037,138.009750 
	C1249.189819,138.100662 1241.947632,142.229965 1235.739380,147.886780 
	C1227.084229,155.773209 1222.988525,165.896225 1222.993286,177.662064 
	C1223.010986,222.641190 1222.878540,267.620789 1223.047729,312.599274 
	C1223.136963,336.331970 1240.628784,352.376587 1263.526245,352.925598 
	C1280.841431,353.340790 1298.174805,353.002686 1316.500000,352.999817 
M1288.996826,522.500000 
	C1288.996826,589.910889 1288.996826,657.321777 1288.996826,724.708252 
	C1302.698364,724.708252 1315.624268,724.708252 1329.151367,724.708252 
	C1329.151367,666.711487 1329.151367,609.004028 1329.151367,551.295532 
	C1366.014404,551.295532 1402.270996,551.295532 1439.133545,551.295532 
	C1439.133545,609.290527 1439.133545,666.997986 1439.133545,724.721497 
	C1452.668091,724.721497 1465.593262,724.721497 1478.999756,724.721497 
	C1478.999756,722.491699 1478.999756,720.534424 1478.999756,718.577209 
	C1478.999756,661.581909 1478.949219,604.586487 1479.026611,547.591309 
	C1479.054688,526.954346 1461.130127,510.308167 1441.346436,510.070770 
	C1416.352051,509.770874 1391.350098,509.847137 1366.354126,510.071198 
	C1356.517212,510.159424 1347.565918,513.814880 1340.829712,520.898315 
	C1336.023560,525.952087 1332.606812,532.327026 1328.820801,537.752991 
	C1328.820801,501.439758 1328.820801,464.341187 1328.820801,427.268799 
	C1315.426758,427.268799 1302.361450,427.268799 1288.996826,427.268799 
	C1288.996826,458.891937 1288.996826,490.195984 1288.996826,522.500000 
M1938.036865,352.949860 
	C1942.878418,351.629578 1948.046875,350.991425 1952.499268,348.858673 
	C1964.897095,342.919952 1973.856934,333.492279 1974.823975,319.291534 
	C1975.961426,302.587646 1975.786133,285.789124 1975.974487,269.029327 
	C1976.026245,264.437012 1975.608276,259.797485 1974.945923,255.246552 
	C1972.397095,237.736511 1954.694214,222.709625 1937.242065,222.906265 
	C1907.414795,223.242340 1877.581177,222.999435 1847.750122,222.999680 
	C1845.975464,222.999680 1844.200928,222.999664 1842.387939,222.999664 
	C1842.387939,207.680008 1842.387939,192.970032 1842.387939,177.838882 
	C1884.033447,177.838882 1925.291992,177.838882 1966.606079,177.838882 
	C1966.606079,164.034180 1966.606079,150.659897 1966.606079,137.002701 
	C1948.729248,137.002701 1931.245850,136.881546 1913.764526,137.031219 
	C1887.828369,137.253265 1861.891846,137.565933 1835.959839,138.061935 
	C1828.315063,138.208145 1821.798218,141.753479 1815.975952,146.522537 
	C1804.614258,155.828659 1801.003784,168.487793 1801.062988,182.450089 
	C1801.126343,197.375549 1801.794922,212.297516 1801.964478,227.223663 
	C1802.182007,246.380981 1821.314819,263.180939 1839.164185,263.057556 
	C1869.160400,262.850159 1899.159180,263.000824 1929.156860,263.000824 
	C1930.940308,263.000824 1932.723633,263.000824 1934.642822,263.000824 
	C1934.642822,279.586456 1934.642822,295.628876 1934.642822,312.097473 
	C1890.030396,312.097473 1845.772583,312.097473 1801.351318,312.097473 
	C1801.351318,325.904297 1801.351318,339.280151 1801.351318,353.007965 
	C1846.837036,353.007965 1891.974976,353.007965 1938.036865,352.949860 
M1582.500000,177.997467 
	C1595.252075,177.997467 1608.004028,177.997467 1620.782593,177.997467 
	C1620.782593,163.944809 1620.782593,150.674805 1620.782593,136.880829 
	C1597.508667,136.880829 1574.449585,136.880829 1550.793701,136.880829 
	C1550.793701,114.645164 1550.793701,92.929237 1550.793701,71.231018 
	C1536.915527,71.231018 1523.644897,71.231018 1509.850342,71.231018 
	C1509.850342,93.193428 1509.850342,114.919380 1509.850342,137.234787 
	C1492.277710,137.234787 1475.223999,137.234787 1458.322754,137.234787 
	C1458.322754,151.098297 1458.322754,164.359863 1458.322754,178.218323 
	C1475.692139,178.218323 1492.744263,178.218323 1509.998901,178.218323 
	C1509.998901,180.980209 1509.999023,183.138824 1509.999023,185.297424 
	C1509.998047,228.295883 1509.859253,271.295074 1510.090210,314.292267 
	C1510.149780,325.370972 1514.751343,335.065948 1522.978516,342.485840 
	C1532.025757,350.645325 1543.198242,353.120514 1555.173218,353.037567 
	C1575.171509,352.899048 1595.171509,352.999756 1615.170776,352.999725 
	C1616.960449,352.999725 1618.750122,352.999725 1620.692749,352.999725 
	C1620.692749,339.169739 1620.692749,325.784149 1620.692749,311.800903 
	C1597.338013,311.800903 1574.288086,311.800903 1551.305176,311.800903 
	C1551.305176,266.942932 1551.305176,222.685425 1551.305176,177.997391 
	C1561.571167,177.997391 1571.535522,177.997391 1582.500000,177.997467 
M1831.999268,600.500000 
	C1831.999390,629.159729 1832.303223,657.823669 1831.897583,686.477661 
	C1831.604736,707.166626 1850.292725,725.266235 1870.698242,725.053101 
	C1892.857178,724.821594 1915.020386,725.000549 1937.181641,725.000549 
	C1938.965942,725.000549 1940.750244,725.000549 1942.686279,725.000549 
	C1942.686279,711.439575 1942.686279,698.393005 1942.686279,684.767090 
	C1918.978516,684.767090 1895.596191,684.767090 1872.307373,684.767090 
	C1872.307373,639.933838 1872.307373,595.683289 1872.307373,550.828125 
	C1895.987915,550.828125 1919.366699,550.828125 1942.735352,550.828125 
	C1942.735352,536.961243 1942.735352,523.702332 1942.735352,509.864563 
	C1919.076538,509.864563 1895.694214,509.864563 1871.900146,509.864563 
	C1871.900146,487.693604 1871.900146,466.101471 1871.900146,444.341492 
	C1858.433472,444.341492 1845.391846,444.341492 1831.752930,444.341492 
	C1831.752930,466.392700 1831.752930,488.106293 1831.752930,510.230408 
	C1813.895508,510.230408 1796.635376,510.230408 1779.388184,510.230408 
	C1779.388184,524.035278 1779.388184,537.410583 1779.388184,551.200012 
	C1797.063843,551.200012 1814.323730,551.200012 1831.999268,551.200012 
	C1831.999268,567.578979 1831.999268,583.539490 1831.999268,600.500000 
M833.001221,667.500000 
	C833.001221,448.101654 833.001221,228.703278 833.001221,9.236442 
	C828.705200,9.236442 825.111511,9.236442 821.263306,9.236442 
	C821.263306,275.880066 821.263306,542.246582 821.263306,808.708374 
	C825.165588,808.708374 828.885010,808.708374 833.001221,808.708374 
	C833.001221,761.755066 833.001221,715.127502 833.001221,667.500000 
M1739.022827,121.313683 
	C1739.682739,110.966537 1740.562744,100.627319 1740.935913,90.269836 
	C1741.257690,81.337029 1741.002686,72.383438 1741.002686,63.365635 
	C1722.378540,63.365635 1704.332886,63.365635 1685.994873,63.365635 
	C1685.994873,72.043434 1685.988770,80.358376 1685.996948,88.673294 
	C1686.003418,95.339149 1685.360596,102.087936 1686.177734,108.654137 
	C1688.068115,123.846069 1690.761353,138.936234 1692.955200,154.092804 
	C1695.101196,168.917633 1697.031982,183.773605 1699.064575,198.670837 
	C1708.926147,198.670837 1718.333252,198.670837 1727.624634,198.670837 
	C1728.679443,191.694794 1729.727173,185.063492 1730.677124,178.418213 
	C1732.481812,165.794006 1734.184204,153.155075 1736.022339,140.535828 
	C1736.914062,134.413742 1738.016235,128.322311 1739.022827,121.313683 
z"/>
<path fill="#828282" opacity="1.000000" stroke="none" 
	d="
M33.989841,500.006287 
	C31.312147,486.371460 27.698004,473.264343 26.203146,459.919830 
	C24.006386,440.309479 22.269402,420.526733 22.322489,400.822784 
	C22.366463,384.501038 24.961401,368.146790 26.999279,351.878784 
	C30.212357,326.229370 37.764492,301.637543 47.267517,277.730865 
	C54.843346,258.672424 63.689430,240.097198 75.405273,223.137512 
	C85.364807,208.720200 94.990059,193.957047 106.212563,180.561127 
	C116.364899,168.442642 127.890045,157.285370 139.879089,146.943817 
	C153.831787,134.908463 168.447937,123.486694 183.681046,113.129524 
	C204.050980,99.279770 225.979675,87.907959 249.424652,80.174149 
	C268.974792,73.725113 288.846741,68.089775 308.858826,63.266994 
	C319.929169,60.599110 331.563324,60.168091 342.974823,59.050129 
	C352.481720,58.118752 362.034790,57.125099 371.566925,57.130081 
	C381.764252,57.135406 391.975159,58.111000 402.153931,58.972694 
	C411.469391,59.761307 420.877716,60.316872 430.017548,62.125362 
	C446.118805,65.311310 462.214996,68.774818 478.005707,73.215836 
	C499.120544,79.154198 519.161255,88.014130 538.582397,98.221237 
	C557.106750,107.957008 574.604553,119.302948 590.856628,132.462967 
	C601.088806,140.748398 611.497620,148.984528 620.656555,158.383514 
	C631.878235,169.899399 642.135193,182.395248 652.344360,194.848602 
	C668.145813,214.123550 680.779663,235.454636 691.427795,257.941681 
	C703.575500,283.595428 713.159729,310.167542 717.926208,338.231201 
	C720.444092,353.056000 722.706848,367.989746 723.826660,382.968323 
	C725.000854,398.674438 725.767395,414.562225 724.779846,430.248962 
	C722.305298,469.557404 713.813232,507.595459 698.559937,544.107178 
	C687.234192,571.217346 672.699646,596.426147 655.301819,619.957031 
	C647.815369,630.082642 639.001953,639.232300 630.722046,648.765137 
	C612.688660,669.527344 591.387695,686.530334 568.660889,701.749634 
	C544.823975,717.712219 519.561646,731.072693 492.194763,739.952393 
	C476.455475,745.059265 460.536896,749.729919 444.472656,753.675232 
	C434.853760,756.037537 424.831482,756.975342 414.929810,757.910767 
	C403.604218,758.980652 392.207764,759.929688 380.848480,759.861633 
	C364.956360,759.766418 349.033173,759.155334 333.189728,757.915405 
	C306.229156,755.805420 280.203033,749.105042 254.805817,740.018616 
	C233.140381,732.267334 212.096558,723.066345 192.826218,710.339294 
	C178.747589,701.041016 164.194611,692.209290 151.300034,681.437561 
	C137.031921,669.518433 124.140831,655.890137 111.142426,642.527222 
	C94.694191,625.617737 81.169167,606.337280 69.693062,585.850647 
	C60.871323,570.102539 53.265381,553.595825 46.202446,536.966187 
	C41.198563,525.184631 38.003529,512.634766 33.989841,500.006287 
M350.500122,210.245560 
	C291.681335,210.246613 232.862381,210.167709 174.043808,210.281006 
	C142.592453,210.341583 119.930534,232.063721 119.863640,262.764069 
	C119.665787,353.574463 119.681808,444.385925 119.998909,535.195618 
	C120.024857,542.624817 121.676483,550.644653 124.797134,557.355713 
	C134.491837,578.204529 151.868698,587.653931 174.583923,587.662598 
	C241.067444,587.687988 307.550995,587.699463 374.034393,587.601868 
	C377.824524,587.596313 380.520203,588.625732 383.141632,591.443604 
	C394.716125,603.885437 406.544800,616.090393 418.233551,628.426514 
	C441.034698,652.490540 472.946869,653.097595 496.509033,629.792053 
	C509.658356,616.785889 522.614929,603.583984 535.856262,590.673218 
	C537.531006,589.040222 540.382812,587.896729 542.737976,587.807129 
	C551.556458,587.471863 560.397827,587.807007 569.225830,587.640930 
	C600.918396,587.044983 622.726868,564.995789 622.754028,533.279663 
	C622.830627,443.801880 622.910706,354.323547 622.576172,264.846985 
	C622.545898,256.745667 620.979797,247.995605 617.637268,240.685150 
	C607.986389,219.577393 590.371338,210.231812 567.446655,210.238403 
	C495.464478,210.259079 423.482330,210.245758 350.500122,210.245560 
z"/>
<path fill="#828282" opacity="1.000000" stroke="none" 
	d="
M1183.713745,478.024719 
	C1132.425537,478.010864 1081.613159,478.010864 1030.400024,478.010864 
	C1030.400024,546.276733 1030.400024,614.310913 1030.400024,682.672607 
	C1081.970459,682.672607 1133.555054,682.672607 1185.744507,682.672607 
	C1185.744507,670.784546 1185.744507,658.731201 1185.744507,646.344604 
	C1200.054810,646.344604 1213.763672,646.344604 1228.944458,646.344604 
	C1227.953857,663.192810 1228.694946,680.148926 1225.490234,696.323303 
	C1222.598633,710.918762 1211.324463,720.331787 1196.326538,723.928772 
	C1193.334595,724.646362 1190.174438,724.953003 1187.091309,724.956543 
	C1134.101440,725.017151 1081.111572,725.009155 1028.121704,724.996033 
	C1009.695129,724.991455 993.267395,711.949951 989.060730,693.484924 
	C988.338257,690.313416 988.044739,686.978271 988.042053,683.718323 
	C987.985352,614.398315 987.941589,545.078186 988.032593,475.758209 
	C988.060730,454.314606 1006.597534,436.006378 1027.611206,436.002655 
	C1080.434448,435.993256 1133.262939,436.422211 1186.078003,435.764160 
	C1203.826538,435.542999 1223.471436,449.517242 1226.792969,468.356903 
	C1228.130249,475.942627 1227.789917,483.844757 1227.968018,491.608521 
	C1228.142700,499.224823 1228.006104,506.848297 1228.006104,514.731873 
	C1213.914673,514.731873 1200.323608,514.731873 1185.999023,514.731873 
	C1185.999023,507.453033 1185.999756,500.192780 1185.998901,492.932526 
	C1185.998413,489.099945 1186.132324,485.259369 1185.910400,481.439575 
	C1185.842896,480.276520 1184.790894,479.170624 1183.713745,478.024719 
z"/>
<path fill="#828282" opacity="1.000000" stroke="none" 
	d="
M1316.000000,352.999817 
	C1298.174805,353.002686 1280.841431,353.340790 1263.526245,352.925598 
	C1240.628784,352.376587 1223.136963,336.331970 1223.047729,312.599274 
	C1222.878540,267.620789 1223.010986,222.641190 1222.993286,177.662064 
	C1222.988525,165.896225 1227.084229,155.773209 1235.739380,147.886780 
	C1241.947632,142.229965 1249.189819,138.100662 1257.988037,138.009750 
	C1293.393677,137.643875 1328.801025,137.016052 1364.205444,137.141785 
	C1380.130127,137.198334 1393.043579,144.167374 1400.695190,158.664825 
	C1402.990112,163.012985 1404.755249,168.231079 1404.812744,173.073761 
	C1405.172241,203.388535 1404.980835,233.709854 1404.955933,264.028992 
	C1404.955566,264.495941 1404.750977,264.962738 1404.551392,265.815369 
	C1357.643555,265.815369 1310.731934,265.815369 1263.410645,265.815369 
	C1263.410645,281.254028 1263.410645,296.293365 1263.410645,311.920166 
	C1310.407593,311.920166 1357.438599,311.920166 1404.733154,311.920166 
	C1404.733154,325.757935 1404.733154,339.015259 1404.733154,352.999817 
	C1375.314331,352.999817 1345.907227,352.999817 1316.000000,352.999817 
M1314.500000,224.999069 
	C1331.230957,224.999069 1347.961914,224.999069 1364.578369,224.999069 
	C1364.578369,208.909286 1364.578369,193.548279 1364.578369,178.272949 
	C1330.600464,178.272949 1297.046143,178.272949 1263.334717,178.272949 
	C1263.334717,193.909454 1263.334717,209.268616 1263.334717,224.999069 
	C1280.277710,224.999069 1296.888916,224.999069 1314.500000,224.999069 
z"/>
<path fill="#828282" opacity="1.000000" stroke="none" 
	d="
M1544.083740,685.021973 
	C1544.042603,667.644165 1544.001465,650.266357 1544.175781,632.241638 
	C1544.544434,631.328491 1544.740234,631.098389 1544.978394,630.904419 
	C1543.396729,609.428650 1563.983643,590.446289 1585.072876,590.842590 
	C1616.556274,591.434387 1648.058960,590.998291 1679.553467,590.999390 
	C1681.512695,590.999451 1683.472046,590.999329 1685.722900,590.999329 
	C1685.722900,577.611511 1685.722900,564.688721 1685.722900,551.223145 
	C1643.000610,551.223145 1600.283813,551.223145 1557.283936,551.223145 
	C1557.283936,537.297974 1557.283936,523.913086 1557.283936,509.998505 
	C1559.287964,509.998505 1561.072754,509.998505 1562.857422,509.998505 
	C1604.516846,509.998138 1646.177002,509.845367 1687.835205,510.068359 
	C1705.923828,510.165192 1722.956177,523.196289 1725.967407,542.671753 
	C1726.566650,546.546387 1726.956787,550.497192 1726.961304,554.413391 
	C1727.023926,609.237061 1727.002686,664.060791 1727.002075,718.884521 
	C1727.002075,720.696045 1727.002075,722.507629 1727.002075,724.658997 
	C1713.324463,724.658997 1699.939819,724.658997 1686.180054,724.658997 
	C1686.180054,715.833618 1686.180054,707.066223 1686.180054,698.298828 
	C1681.671875,706.394775 1676.468018,713.567383 1668.805664,718.764832 
	C1663.145752,722.604065 1657.013672,724.956726 1650.164917,724.977173 
	C1627.835693,725.044006 1605.505859,724.921814 1583.176880,725.023621 
	C1562.322144,725.118774 1544.236694,706.759827 1544.837158,686.383484 
	C1544.522705,685.480286 1544.323975,685.234314 1544.083740,685.021973 
M1585.013184,638.611450 
	C1585.013184,654.002502 1585.013184,669.393555 1585.013184,684.735840 
	C1619.040527,684.735840 1652.264771,684.735840 1685.683716,684.735840 
	C1685.683716,667.111755 1685.683716,649.753357 1685.683716,632.347900 
	C1652.011230,632.347900 1618.670654,632.347900 1585.018188,632.347900 
	C1585.018188,634.358826 1585.018188,636.001587 1585.013184,638.611450 
z"/>
<path fill="#828282" opacity="1.000000" stroke="none" 
	d="
M1288.996826,522.000000 
	C1288.996826,490.195984 1288.996826,458.891937 1288.996826,427.268799 
	C1302.361450,427.268799 1315.426758,427.268799 1328.820801,427.268799 
	C1328.820801,464.341187 1328.820801,501.439758 1328.820801,537.752991 
	C1332.606812,532.327026 1336.023560,525.952087 1340.829712,520.898315 
	C1347.565918,513.814880 1356.517212,510.159424 1366.354126,510.071198 
	C1391.350098,509.847137 1416.352051,509.770874 1441.346436,510.070770 
	C1461.130127,510.308167 1479.054688,526.954346 1479.026611,547.591309 
	C1478.949219,604.586487 1478.999756,661.581909 1478.999756,718.577209 
	C1478.999756,720.534424 1478.999756,722.491699 1478.999756,724.721497 
	C1465.593262,724.721497 1452.668091,724.721497 1439.133545,724.721497 
	C1439.133545,666.997986 1439.133545,609.290527 1439.133545,551.295532 
	C1402.270996,551.295532 1366.014404,551.295532 1329.151367,551.295532 
	C1329.151367,609.004028 1329.151367,666.711487 1329.151367,724.708252 
	C1315.624268,724.708252 1302.698364,724.708252 1288.996826,724.708252 
	C1288.996826,657.321777 1288.996826,589.910889 1288.996826,522.000000 
z"/>
<path fill="#828282" opacity="1.000000" stroke="none" 
	d="
M1937.574951,352.978912 
	C1891.974976,353.007965 1846.837036,353.007965 1801.351318,353.007965 
	C1801.351318,339.280151 1801.351318,325.904297 1801.351318,312.097473 
	C1845.772583,312.097473 1890.030396,312.097473 1934.642822,312.097473 
	C1934.642822,295.628876 1934.642822,279.586456 1934.642822,263.000824 
	C1932.723633,263.000824 1930.940308,263.000824 1929.156860,263.000824 
	C1899.159180,263.000824 1869.160400,262.850159 1839.164185,263.057556 
	C1821.314819,263.180939 1802.182007,246.380981 1801.964478,227.223663 
	C1801.794922,212.297516 1801.126343,197.375549 1801.062988,182.450089 
	C1801.003784,168.487793 1804.614258,155.828659 1815.975952,146.522537 
	C1821.798218,141.753479 1828.315063,138.208145 1835.959839,138.061935 
	C1861.891846,137.565933 1887.828369,137.253265 1913.764526,137.031219 
	C1931.245850,136.881546 1948.729248,137.002701 1966.606079,137.002701 
	C1966.606079,150.659897 1966.606079,164.034180 1966.606079,177.838882 
	C1925.291992,177.838882 1884.033447,177.838882 1842.387939,177.838882 
	C1842.387939,192.970032 1842.387939,207.680008 1842.387939,222.999664 
	C1844.200928,222.999664 1845.975464,222.999680 1847.750122,222.999680 
	C1877.581177,222.999435 1907.414795,223.242340 1937.242065,222.906265 
	C1954.694214,222.709625 1972.397095,237.736511 1974.945923,255.246552 
	C1975.608276,259.797485 1976.026245,264.437012 1975.974487,269.029327 
	C1975.786133,285.789124 1975.961426,302.587646 1974.823975,319.291534 
	C1973.856934,333.492279 1964.897095,342.919952 1952.499268,348.858673 
	C1948.046875,350.991425 1942.878418,351.629578 1937.574951,352.978912 
z"/>
<path fill="#828282" opacity="1.000000" stroke="none" 
	d="
M1582.000000,177.997437 
	C1571.535522,177.997391 1561.571167,177.997391 1551.305176,177.997391 
	C1551.305176,222.685425 1551.305176,266.942932 1551.305176,311.800903 
	C1574.288086,311.800903 1597.338013,311.800903 1620.692749,311.800903 
	C1620.692749,325.784149 1620.692749,339.169739 1620.692749,352.999725 
	C1618.750122,352.999725 1616.960449,352.999725 1615.170776,352.999725 
	C1595.171509,352.999756 1575.171509,352.899048 1555.173218,353.037567 
	C1543.198242,353.120514 1532.025757,350.645325 1522.978516,342.485840 
	C1514.751343,335.065948 1510.149780,325.370972 1510.090210,314.292267 
	C1509.859253,271.295074 1509.998047,228.295883 1509.999023,185.297424 
	C1509.999023,183.138824 1509.998901,180.980209 1509.998901,178.218323 
	C1492.744263,178.218323 1475.692139,178.218323 1458.322754,178.218323 
	C1458.322754,164.359863 1458.322754,151.098297 1458.322754,137.234787 
	C1475.223999,137.234787 1492.277710,137.234787 1509.850342,137.234787 
	C1509.850342,114.919380 1509.850342,93.193428 1509.850342,71.231018 
	C1523.644897,71.231018 1536.915527,71.231018 1550.793701,71.231018 
	C1550.793701,92.929237 1550.793701,114.645164 1550.793701,136.880829 
	C1574.449585,136.880829 1597.508667,136.880829 1620.782593,136.880829 
	C1620.782593,150.674805 1620.782593,163.944809 1620.782593,177.997467 
	C1608.004028,177.997467 1595.252075,177.997467 1582.000000,177.997437 
z"/>
<path fill="#828282" opacity="1.000000" stroke="none" 
	d="
M1831.999268,600.000000 
	C1831.999268,583.539490 1831.999268,567.578979 1831.999268,551.200012 
	C1814.323730,551.200012 1797.063843,551.200012 1779.388184,551.200012 
	C1779.388184,537.410583 1779.388184,524.035278 1779.388184,510.230408 
	C1796.635376,510.230408 1813.895508,510.230408 1831.752930,510.230408 
	C1831.752930,488.106293 1831.752930,466.392700 1831.752930,444.341492 
	C1845.391846,444.341492 1858.433472,444.341492 1871.900146,444.341492 
	C1871.900146,466.101471 1871.900146,487.693604 1871.900146,509.864563 
	C1895.694214,509.864563 1919.076538,509.864563 1942.735352,509.864563 
	C1942.735352,523.702332 1942.735352,536.961243 1942.735352,550.828125 
	C1919.366699,550.828125 1895.987915,550.828125 1872.307373,550.828125 
	C1872.307373,595.683289 1872.307373,639.933838 1872.307373,684.767090 
	C1895.596191,684.767090 1918.978516,684.767090 1942.686279,684.767090 
	C1942.686279,698.393005 1942.686279,711.439575 1942.686279,725.000549 
	C1940.750244,725.000549 1938.965942,725.000549 1937.181641,725.000549 
	C1915.020386,725.000549 1892.857178,724.821594 1870.698242,725.053101 
	C1850.292725,725.266235 1831.604736,707.166626 1831.897583,686.477661 
	C1832.303223,657.823669 1831.999390,629.159729 1831.999268,600.000000 
z"/>
<path fill="#828282" opacity="1.000000" stroke="none" 
	d="
M1174.951294,310.144318 
	C1175.967407,310.882416 1177.859497,311.608734 1177.869629,312.360443 
	C1178.049194,325.665253 1177.999634,338.973145 1177.999634,352.653198 
	C1114.654663,352.653198 1051.627808,352.653198 988.298462,352.653198 
	C988.298462,256.204773 988.298462,159.849625 988.298462,63.245987 
	C1002.087830,63.245987 1015.680359,63.245987 1030.003296,63.245987 
	C1030.003296,145.197754 1030.003296,227.090149 1030.383301,309.617371 
	C1032.722290,310.501007 1034.681030,310.965149 1036.640259,310.967010 
	C1080.623413,311.008209 1124.606445,311.010498 1168.589600,310.962372 
	C1170.710449,310.960052 1172.830688,310.429108 1174.951294,310.144318 
z"/>
<path fill="#828282" opacity="1.000000" stroke="none" 
	d="
M833.001221,668.000000 
	C833.001221,715.127502 833.001221,761.755066 833.001221,808.708374 
	C828.885010,808.708374 825.165588,808.708374 821.263306,808.708374 
	C821.263306,542.246582 821.263306,275.880066 821.263306,9.236442 
	C825.111511,9.236442 828.705200,9.236442 833.001221,9.236442 
	C833.001221,228.703278 833.001221,448.101654 833.001221,668.000000 
z"/>
<path fill="#828282" opacity="1.000000" stroke="none" 
	d="
M1739.022949,121.765350 
	C1738.016235,128.322311 1736.914062,134.413742 1736.022339,140.535828 
	C1734.184204,153.155075 1732.481812,165.794006 1730.677124,178.418213 
	C1729.727173,185.063492 1728.679443,191.694794 1727.624634,198.670837 
	C1718.333252,198.670837 1708.926147,198.670837 1699.064575,198.670837 
	C1697.031982,183.773605 1695.101196,168.917633 1692.955200,154.092804 
	C1690.761353,138.936234 1688.068115,123.846069 1686.177734,108.654137 
	C1685.360596,102.087936 1686.003418,95.339149 1685.996948,88.673294 
	C1685.988770,80.358376 1685.994873,72.043434 1685.994873,63.365635 
	C1704.332886,63.365635 1722.378540,63.365635 1741.002686,63.365635 
	C1741.002686,72.383438 1741.257690,81.337029 1740.935913,90.269836 
	C1740.562744,100.627319 1739.682739,110.966537 1739.022949,121.765350 
z"/>
<path fill="#A4A4A4" opacity="1.000000" stroke="none" 
	d="
M1174.489258,310.082764 
	C1172.830688,310.429108 1170.710449,310.960052 1168.589600,310.962372 
	C1124.606445,311.010498 1080.623413,311.008209 1036.640259,310.967010 
	C1034.681030,310.965149 1032.722290,310.501007 1030.386719,310.080322 
	C1078.015991,309.945953 1126.021606,309.983551 1174.489258,310.082764 
z"/>
<path fill="#999999" opacity="1.000000" stroke="none" 
	d="
M1544.732300,630.985352 
	C1544.740234,631.098389 1544.544434,631.328491 1544.254395,631.776062 
	C1544.240356,631.660400 1544.363281,631.363342 1544.732300,630.985352 
z"/>
<path fill="#999999" opacity="1.000000" stroke="none" 
	d="
M1544.080078,685.295776 
	C1544.323975,685.234314 1544.522705,685.480286 1544.827393,685.947021 
	C1544.675415,685.945984 1544.375977,685.757751 1544.080078,685.295776 
z"/>
<path fill="#F9F9F9" opacity="1.000000" stroke="none" 
	d="
M351.000122,210.245575 
	C423.482330,210.245758 495.464478,210.259079 567.446655,210.238403 
	C590.371338,210.231812 607.986389,219.577393 617.637268,240.685150 
	C620.979797,247.995605 622.545898,256.745667 622.576172,264.846985 
	C622.910706,354.323547 622.830627,443.801880 622.754028,533.279663 
	C622.726868,564.995789 600.918396,587.044983 569.225830,587.640930 
	C560.397827,587.807007 551.556458,587.471863 542.737976,587.807129 
	C540.382812,587.896729 537.531006,589.040222 535.856262,590.673218 
	C522.614929,603.583984 509.658356,616.785889 496.509033,629.792053 
	C472.946869,653.097595 441.034698,652.490540 418.233551,628.426514 
	C406.544800,616.090393 394.716125,603.885437 383.141632,591.443604 
	C380.520203,588.625732 377.824524,587.596313 374.034393,587.601868 
	C307.550995,587.699463 241.067444,587.687988 174.583923,587.662598 
	C151.868698,587.653931 134.491837,578.204529 124.797134,557.355713 
	C121.676483,550.644653 120.024857,542.624817 119.998909,535.195618 
	C119.681808,444.385925 119.665787,353.574463 119.863640,262.764069 
	C119.930534,232.063721 142.592453,210.341583 174.043808,210.281006 
	C232.862381,210.167709 291.681335,210.246613 351.000122,210.245575 
M184.519531,535.748840 
	C254.832657,535.748840 325.145844,535.781738 395.458771,535.669006 
	C399.762909,535.662048 402.870514,536.710571 405.881958,539.977783 
	C417.285065,552.349487 428.875427,564.556335 440.662231,576.563232 
	C446.449432,582.458557 452.820770,587.780457 459.855591,594.209961 
	C460.286987,593.566162 461.095947,591.820190 462.371033,590.537537 
	C479.286469,573.522095 496.317413,556.621155 513.179871,539.553650 
	C515.828430,536.872803 518.467468,535.606995 522.310974,535.664124 
	C536.636963,535.877136 550.967957,535.760315 565.297119,535.733337 
	C567.051453,535.730042 568.805420,535.521362 570.442505,535.415466 
	C570.442505,444.083313 570.442505,353.370026 570.442505,262.499329 
	C437.485840,262.499329 304.940277,262.499329 172.164856,262.499329 
	C172.164856,353.635620 172.164856,444.455200 172.164856,535.748840 
	C176.257248,535.748840 179.893509,535.748840 184.519531,535.748840 
z"/>
<path fill="#000000" opacity="1.000000" stroke="none" 
	d="
M1314.000000,224.999069 
	C1296.888916,224.999069 1280.277710,224.999069 1263.334717,224.999069 
	C1263.334717,209.268616 1263.334717,193.909454 1263.334717,178.272949 
	C1297.046143,178.272949 1330.600464,178.272949 1364.578369,178.272949 
	C1364.578369,193.548279 1364.578369,208.909286 1364.578369,224.999069 
	C1347.961914,224.999069 1331.230957,224.999069 1314.000000,224.999069 
z"/>
<path fill="#000000" opacity="1.000000" stroke="none" 
	d="
M1585.015625,638.127930 
	C1585.018188,636.001587 1585.018188,634.358826 1585.018188,632.347900 
	C1618.670654,632.347900 1652.011230,632.347900 1685.683716,632.347900 
	C1685.683716,649.753357 1685.683716,667.111755 1685.683716,684.735840 
	C1652.264771,684.735840 1619.040527,684.735840 1585.013184,684.735840 
	C1585.013184,669.393555 1585.013184,654.002502 1585.015625,638.127930 
z"/>
<path fill="#828282" opacity="1.000000" stroke="none" 
	d="
M184.024658,535.748840 
	C179.893509,535.748840 176.257248,535.748840 172.164856,535.748840 
	C172.164856,444.455200 172.164856,353.635620 172.164856,262.499329 
	C304.940277,262.499329 437.485840,262.499329 570.442505,262.499329 
	C570.442505,353.370026 570.442505,444.083313 570.442505,535.415466 
	C568.805420,535.521362 567.051453,535.730042 565.297119,535.733337 
	C550.967957,535.760315 536.636963,535.877136 522.310974,535.664124 
	C518.467468,535.606995 515.828430,536.872803 513.179871,539.553650 
	C496.317413,556.621155 479.286469,573.522095 462.371033,590.537537 
	C461.095947,591.820190 460.286987,593.566162 459.855591,594.209961 
	C452.820770,587.780457 446.449432,582.458557 440.662231,576.563232 
	C428.875427,564.556335 417.285065,552.349487 405.881958,539.977783 
	C402.870514,536.710571 399.762909,535.662048 395.458771,535.669006 
	C325.145844,535.781738 254.832657,535.748840 184.024658,535.748840 
M222.286606,383.853333 
	C216.671387,391.998413 217.063339,399.457764 223.778397,406.392212 
	C228.524597,411.293457 233.224823,416.320190 238.489166,420.626373 
	C303.908325,474.139465 375.947388,484.656281 453.941528,452.628540 
	C479.208923,442.252625 500.621429,425.786743 519.202271,405.768738 
	C525.688232,398.781128 525.585144,389.172882 519.277954,382.833893 
	C513.121033,376.645874 502.925873,376.594330 496.246521,382.775757 
	C494.414917,384.470795 492.777802,386.374359 490.972748,388.099884 
	C447.870331,429.303558 396.834412,445.146301 338.203796,434.516571 
	C302.932220,428.121857 273.078064,410.941345 248.286575,384.993530 
	C240.180206,376.509064 231.105591,376.010284 222.286606,383.853333 
M288.231293,355.007812 
	C288.473816,356.147797 288.676514,357.297943 288.965088,358.426147 
	C291.747772,369.304413 301.169098,376.280884 313.090881,376.307983 
	C325.418243,376.335999 335.264191,369.516357 338.041962,358.723663 
	C340.585968,348.839050 338.380859,339.969666 330.439331,333.436646 
	C321.810486,326.338135 311.761383,325.565094 301.785400,330.156799 
	C291.785675,334.759430 287.631287,343.269592 288.231293,355.007812 
M420.619720,375.201904 
	C441.352234,380.468781 458.406219,365.235809 453.534454,345.801819 
	C450.687622,334.445496 440.623108,327.232666 428.086487,327.564331 
	C415.821320,327.888824 406.012390,335.714203 403.966003,346.807251 
	C401.599121,359.637573 407.388245,369.927673 420.619720,375.201904 
z"/>
<path fill="#F9F9F9" opacity="1.000000" stroke="none" 
	d="
M222.536255,383.580017 
	C231.105591,376.010284 240.180206,376.509064 248.286575,384.993530 
	C273.078064,410.941345 302.932220,428.121857 338.203796,434.516571 
	C396.834412,445.146301 447.870331,429.303558 490.972748,388.099884 
	C492.777802,386.374359 494.414917,384.470795 496.246521,382.775757 
	C502.925873,376.594330 513.121033,376.645874 519.277954,382.833893 
	C525.585144,389.172882 525.688232,398.781128 519.202271,405.768738 
	C500.621429,425.786743 479.208923,442.252625 453.941528,452.628540 
	C375.947388,484.656281 303.908325,474.139465 238.489166,420.626373 
	C233.224823,416.320190 228.524597,411.293457 223.778397,406.392212 
	C217.063339,399.457764 216.671387,391.998413 222.536255,383.580017 
z"/>
<path fill="#F9F9F9" opacity="1.000000" stroke="none" 
	d="
M288.188385,354.577332 
	C287.631287,343.269592 291.785675,334.759430 301.785400,330.156799 
	C311.761383,325.565094 321.810486,326.338135 330.439331,333.436646 
	C338.380859,339.969666 340.585968,348.839050 338.041962,358.723663 
	C335.264191,369.516357 325.418243,376.335999 313.090881,376.307983 
	C301.169098,376.280884 291.747772,369.304413 288.965088,358.426147 
	C288.676514,357.297943 288.473816,356.147797 288.188385,354.577332 
z"/>
<path fill="#F9F9F9" opacity="1.000000" stroke="none" 
	d="
M420.222290,375.099091 
	C407.388245,369.927673 401.599121,359.637573 403.966003,346.807251 
	C406.012390,335.714203 415.821320,327.888824 428.086487,327.564331 
	C440.623108,327.232666 450.687622,334.445496 453.534454,345.801819 
	C458.406219,365.235809 441.352234,380.468781 420.222290,375.099091 
z"/>
</svg>