<svg version="1.1" id="Layer_1" xmlns="http://www.w3.org/2000/svg" xmlns:xlink="http://www.w3.org/1999/xlink" x="0px" y="0px"
	 width="100%" viewBox="0 0 2000 816" enable-background="new 0 0 2000 816" xml:space="preserve">
<path fill="#4C6971" opacity="1.000000" stroke="none" 
	d="
M1482.000000,817.000000 
	C988.000061,817.000000 494.500183,817.000000 1.000199,817.000000 
	C1.000132,545.000122 1.000132,273.000275 1.000066,1.000308 
	C667.666443,1.000206 1334.332886,1.000206 2000.999512,1.000103 
	C2000.999634,272.999695 2000.999634,544.999390 2000.999756,816.999512 
	C1828.166626,817.000000 1655.333374,817.000000 1482.000000,817.000000 
M1544.995239,686.903076 
	C1545.258667,708.026001 1562.076050,724.883057 1583.167236,724.973267 
	C1604.993286,725.066711 1626.820068,725.011108 1648.646606,724.987427 
	C1658.444946,724.976807 1667.028076,721.596924 1673.775513,714.562622 
	C1678.181274,709.969543 1681.822510,704.643066 1686.013062,699.385498 
	C1686.013062,705.913635 1686.155762,712.510864 1685.961914,719.098145 
	C1685.837036,723.346069 1687.434937,725.122192 1691.788086,725.042603 
	C1701.615112,724.862793 1711.449951,724.859192 1721.276733,725.042664 
	C1725.689331,725.125000 1727.143921,723.225281 1727.041016,719.037231 
	C1726.861084,711.710693 1726.999634,704.376465 1726.999512,697.045410 
	C1726.998779,648.393982 1727.063354,599.742371 1726.965088,551.091125 
	C1726.919678,528.578064 1710.465698,510.366638 1689.021973,510.154755 
	C1646.872559,509.738281 1604.716431,510.051727 1562.563110,509.972992 
	C1558.476440,509.965363 1556.896729,511.585175 1556.968628,515.623962 
	C1557.116821,523.951965 1557.001465,532.284607 1557.000854,540.615295 
	C1557.000122,551.009033 1557.002930,551.011475 1567.267700,551.011902 
	C1604.256104,551.013489 1641.244629,551.007080 1678.233032,551.018738 
	C1685.881104,551.021118 1685.981934,551.140015 1685.997314,558.917603 
	C1686.013428,567.081726 1686.017456,575.245850 1685.995605,583.409912 
	C1685.975830,590.791687 1685.794678,590.988953 1678.411621,590.992615 
	C1647.254639,591.008057 1616.090454,591.414490 1584.943359,590.858704 
	C1563.623413,590.478271 1543.420654,609.609375 1544.468018,631.629517 
	C1544.368896,649.171204 1544.261841,666.712952 1544.205688,684.254761 
	C1544.203857,684.842773 1544.716309,685.432495 1544.995239,686.903076 
M264.264740,74.773384 
	C234.901550,84.077789 207.352188,97.322578 181.677475,114.209778 
	C154.898331,131.823410 130.749985,152.596085 109.577080,176.803223 
	C95.407997,193.002838 82.682701,210.210785 71.701828,228.676727 
	C57.281338,252.926895 45.927845,278.535339 37.568253,305.547241 
	C27.806152,337.090973 23.070322,369.369476 22.091768,402.250305 
	C21.825274,411.204834 22.418688,420.209045 23.047848,429.160217 
	C23.874561,440.921997 24.485359,452.755096 26.320044,464.379028 
	C31.295889,495.904236 40.434261,526.312256 53.663033,555.341980 
	C68.792061,588.541687 88.739044,618.807434 113.328064,645.703430 
	C135.620239,670.086975 160.879456,691.198669 189.132263,708.543884 
	C210.316986,721.549805 232.563278,732.375427 256.055695,740.511780 
	C297.309570,754.799683 339.680023,762.217346 383.439362,759.927307 
	C399.349274,759.094727 415.319885,758.095520 431.070831,755.834900 
	C461.005890,751.538696 489.842529,742.822144 517.321289,730.253174 
	C538.338684,720.639771 558.709839,709.681946 577.379578,695.826294 
	C596.610046,681.554321 614.933167,666.377014 631.169861,648.604492 
	C645.457397,632.965454 658.318604,616.374329 669.904541,598.692688 
	C683.836121,577.431213 695.040588,554.765991 703.844727,531.015930 
	C715.939697,498.389038 723.142822,464.528839 724.770447,429.776581 
	C726.267700,397.808075 724.383484,365.991272 717.486694,334.516815 
	C707.339844,288.210602 689.177002,245.453720 661.431763,207.078232 
	C649.893005,191.118454 636.773376,176.251556 623.741638,161.442963 
	C617.528320,154.382446 609.877380,148.578018 602.812439,142.277710 
	C584.611450,126.046471 564.590271,112.363976 543.244324,100.676788 
	C510.168457,82.567268 475.198914,69.306877 437.895294,63.457104 
	C416.771942,60.144646 395.327118,58.579742 373.963715,57.232311 
	C363.762054,56.588875 353.409363,58.235291 343.131042,58.932102 
	C316.420410,60.742908 290.474304,66.420670 264.264740,74.773384 
M990.943298,699.406921 
	C997.735596,715.328857 1009.924683,724.635742 1027.043457,724.797363 
	C1081.036621,725.307251 1135.037842,725.074585 1189.035522,724.933960 
	C1206.352905,724.888855 1224.658203,710.030457 1226.730835,692.859741 
	C1228.436157,678.732178 1227.649658,664.301086 1227.907471,650.003418 
	C1227.969238,646.577393 1225.586304,646.016113 1222.815918,646.019958 
	C1212.316406,646.034363 1201.816162,646.097839 1191.317749,645.984741 
	C1187.467041,645.943298 1185.924438,647.561890 1185.982178,651.370789 
	C1186.100952,659.201904 1186.014282,667.036255 1185.996948,674.869263 
	C1185.979004,682.946899 1185.947510,682.995667 1177.948486,682.997131 
	C1131.450195,683.005676 1084.951904,683.004761 1038.453613,682.998901 
	C1030.012817,682.997803 1030.001221,682.980469 1030.000488,674.272583 
	C1029.996704,626.440979 1029.998291,578.609375 1029.999146,530.777771 
	C1029.999390,515.278320 1030.094360,499.778046 1029.946655,484.279999 
	C1029.905273,479.936676 1031.185669,477.934753 1035.903198,477.945343 
	C1084.067871,478.053345 1132.232788,478.038025 1180.397583,477.970276 
	C1184.450562,477.964569 1186.102783,479.506439 1186.031982,483.582245 
	C1185.884399,492.079193 1186.128784,500.583313 1185.956787,509.079315 
	C1185.871216,513.307556 1187.392334,515.122314 1191.766357,515.045288 
	C1201.929443,514.866394 1212.100220,514.864990 1222.263306,515.045227 
	C1226.665039,515.123291 1228.104614,513.248535 1228.043091,509.049957 
	C1227.884644,498.219391 1227.922974,487.384369 1228.007202,476.552094 
	C1228.177368,454.659790 1207.844116,435.662506 1187.191650,435.846405 
	C1134.864380,436.312408 1082.525879,436.389832 1030.200684,435.820251 
	C1007.371582,435.571777 987.758484,454.467133 987.879333,478.039612 
	C988.228027,546.035339 987.939148,614.034241 988.120605,682.031311 
	C988.135376,687.574219 989.822510,693.112671 990.943298,699.406921 
M1268.752075,311.988129 
	C1264.375977,312.405609 1262.893066,310.286255 1262.956299,306.070984 
	C1263.115967,295.411560 1262.992188,284.748077 1263.004883,274.086212 
	C1263.014526,266.057281 1263.055420,266.008942 1271.092651,266.007111 
	C1313.406982,265.997406 1355.721191,266.009613 1398.035522,265.989349 
	C1404.559448,265.986206 1404.975220,265.593475 1404.981445,259.285858 
	C1405.009033,231.465057 1405.171143,203.642624 1404.922119,175.824036 
	C1404.783081,160.289825 1397.000000,149.127335 1383.510620,141.788177 
	C1376.261963,137.844421 1368.276489,137.097961 1360.282104,137.061615 
	C1331.129150,136.929047 1301.975098,136.970352 1272.821777,137.045807 
	C1268.180298,137.057816 1263.540527,137.585602 1258.899536,137.867691 
	C1237.901855,139.143982 1222.857910,157.702805 1222.944458,177.943069 
	C1223.135376,222.588837 1222.973267,267.236023 1223.015503,311.882599 
	C1223.037476,335.062347 1239.878418,352.716980 1263.073975,352.882507 
	C1308.384644,353.205902 1353.699341,352.943176 1399.011963,353.054199 
	C1403.644897,353.065582 1405.149048,351.231903 1405.050293,346.803406 
	C1404.849609,337.811981 1405.009277,328.812836 1404.991821,319.816925 
	C1404.976929,312.133575 1404.861450,312.007965 1397.134277,312.005829 
	C1354.653442,311.994141 1312.172485,311.997559 1268.752075,311.988129 
M1328.998779,449.500061 
	C1328.992798,443.834412 1328.853027,438.164642 1329.025757,432.504456 
	C1329.151978,428.375702 1327.355103,426.882782 1323.343872,426.953644 
	C1314.848145,427.103729 1306.347778,426.984894 1297.849243,426.989746 
	C1289.014893,426.994751 1289.002563,427.001648 1289.002197,435.806335 
	C1288.998657,507.293793 1289.000000,578.781250 1289.000000,650.268677 
	C1289.000000,672.598083 1288.991089,694.927551 1289.006592,717.256958 
	C1289.011841,724.871216 1289.135742,724.978394 1296.942139,724.992798 
	C1305.440674,725.008545 1313.939453,725.030518 1322.437622,724.980286 
	C1328.519287,724.944275 1328.967407,724.510315 1328.980103,718.371399 
	C1329.018188,700.041321 1328.997803,681.711182 1328.998657,663.381042 
	C1329.000122,628.220581 1329.014160,593.060059 1328.981567,557.899597 
	C1328.978027,554.137573 1329.004883,550.959229 1334.287964,550.977051 
	C1367.448242,551.089172 1400.609253,551.063171 1433.769897,550.996521 
	C1437.689697,550.988647 1439.126221,552.717224 1439.016602,556.458679 
	C1438.884766,560.953857 1439.000244,565.456055 1439.000366,569.955261 
	C1439.002930,619.279907 1438.996338,668.604614 1439.014526,717.929260 
	C1439.017090,724.658203 1439.346802,724.959473 1446.118774,724.987122 
	C1454.283936,725.020508 1462.449219,725.005371 1470.614502,724.994690 
	C1478.975098,724.983826 1478.995239,724.975037 1478.996094,716.699219 
	C1479.001953,660.709045 1479.013428,604.718872 1478.990967,548.728699 
	C1478.982300,527.377014 1462.213501,510.233215 1440.821411,510.058807 
	C1416.327393,509.859100 1391.830078,509.935242 1367.335083,510.057220 
	C1359.719116,510.095123 1352.619507,512.266541 1346.168823,516.487671 
	C1338.239624,521.676208 1333.178345,529.039612 1328.998779,537.651184 
	C1328.998779,508.600800 1328.998779,479.550415 1328.998779,449.500061 
M1927.500000,177.997650 
	C1938.333130,177.996567 1949.166260,178.020370 1959.999268,177.985214 
	C1966.652832,177.963623 1966.967285,177.632858 1966.989502,170.811981 
	C1967.019287,161.645584 1966.816284,152.474182 1967.065308,143.314499 
	C1967.196167,138.501144 1965.333862,136.900131 1960.613159,136.942139 
	C1941.448364,137.112686 1922.280029,136.882050 1903.115112,137.040680 
	C1880.806274,137.225311 1858.483887,137.258926 1836.196777,138.120102 
	C1818.988525,138.785034 1804.155273,153.636017 1802.488281,169.833328 
	C1800.705444,187.154785 1801.395386,204.738495 1801.206665,222.209915 
	C1801.167603,225.828552 1801.632812,229.550888 1802.509277,233.064896 
	C1807.413940,252.729309 1826.028564,263.507690 1841.768188,263.173645 
	C1870.588135,262.561981 1899.430176,262.987732 1928.263062,263.015564 
	C1934.467285,263.021545 1934.956299,263.490936 1934.979492,269.446808 
	C1935.026733,281.613068 1934.902588,293.780640 1935.040649,305.945496 
	C1935.087280,310.042450 1933.870728,312.371429 1929.368286,312.008026 
	C1927.712891,311.874420 1926.036865,311.999329 1924.370239,311.999390 
	C1885.537598,312.001312 1846.704956,311.992340 1807.872314,312.013214 
	C1801.373291,312.016693 1801.045410,312.354431 1801.021729,318.760101 
	C1800.985962,328.426422 1801.124390,338.094604 1800.974731,347.758667 
	C1800.914551,351.641327 1802.445679,353.035858 1806.285156,353.028931 
	C1849.117554,352.951324 1891.952637,353.258789 1934.781372,352.859650 
	C1958.343262,352.640015 1975.403809,335.683838 1975.901245,312.753937 
	C1976.270020,295.762421 1976.436646,278.740265 1975.850098,261.760895 
	C1975.116211,240.516113 1957.898315,222.447678 1935.857788,222.864563 
	C1906.702148,223.416016 1877.527710,222.924789 1848.362305,223.064697 
	C1843.622803,223.087448 1841.821045,221.470642 1841.931274,216.677551 
	C1842.168945,206.349915 1841.985962,196.012924 1842.004517,185.679825 
	C1842.017944,178.212723 1842.200439,178.010986 1849.501343,178.005981 
	C1875.167603,177.988388 1900.833740,177.998215 1927.500000,177.997650 
M1577.500000,137.007294 
	C1571.000854,137.006195 1564.501587,137.032700 1558.002563,136.996307 
	C1551.349854,136.959061 1551.019897,136.636536 1551.009155,129.824509 
	C1550.981323,112.326538 1550.879639,94.827286 1551.065674,77.331291 
	C1551.116455,72.551254 1549.405884,70.816132 1544.646973,70.941551 
	C1535.321289,71.187325 1525.984375,70.979187 1516.652222,71.023300 
	C1510.489014,71.052429 1510.033691,71.478752 1510.019043,77.532524 
	C1509.977661,94.530495 1510.007690,111.528633 1509.996948,128.526688 
	C1509.991577,136.979782 1509.978760,136.993500 1501.794556,137.003265 
	C1489.296021,137.018173 1476.794800,137.160004 1464.300171,136.939713 
	C1459.483521,136.854782 1457.818726,138.681137 1457.936401,143.400421 
	C1458.173218,152.893448 1458.154297,162.399704 1457.945312,171.893997 
	C1457.845703,176.420029 1459.540405,178.121689 1464.084106,178.054016 
	C1476.579834,177.867920 1489.080322,177.988007 1501.578857,178.000824 
	C1509.974243,178.009430 1509.994263,178.020004 1509.995972,186.260162 
	C1510.004517,228.422043 1509.884277,270.584656 1510.150513,312.744873 
	C1510.184082,318.070648 1511.382202,323.747559 1513.490967,328.636230 
	C1520.484619,344.849365 1533.735352,352.506958 1550.935669,352.860077 
	C1572.424072,353.301178 1593.928589,352.924896 1615.425537,353.031158 
	C1619.504028,353.051331 1621.093018,351.440369 1621.032104,347.390320 
	C1620.889404,337.893616 1621.021851,328.393127 1620.986572,318.894379 
	C1620.962646,312.443817 1620.568726,312.026794 1614.210571,312.015198 
	C1595.546021,311.981171 1576.881470,312.014954 1558.216919,311.989319 
	C1551.372925,311.979919 1551.014404,311.649170 1551.011108,305.035309 
	C1550.991577,265.039856 1550.991943,225.044418 1551.010254,185.048965 
	C1551.013306,178.341492 1551.348389,178.019745 1558.131470,178.009247 
	C1577.129272,177.979828 1596.127686,177.919830 1615.124634,178.041885 
	C1619.390869,178.069275 1621.124146,176.516495 1621.044434,172.186218 
	C1620.866455,162.523956 1620.812500,152.851471 1621.065796,143.192520 
	C1621.195068,138.264633 1619.091187,136.869446 1614.494751,136.945435 
	C1602.499390,137.143768 1590.498657,137.009171 1577.500000,137.007294 
M1779.169556,547.989929 
	C1781.149536,548.994751 1783.112427,550.828064 1785.112427,550.869629 
	C1797.939819,551.136414 1810.775391,551.002991 1823.608276,551.015503 
	C1831.978516,551.023743 1831.996826,551.034668 1831.998291,559.296570 
	C1832.005737,602.128357 1831.967041,644.960205 1832.020386,687.791931 
	C1832.043701,706.533875 1848.834106,724.436523 1867.634644,724.838379 
	C1890.956421,725.336975 1914.296875,724.933716 1937.628906,725.014282 
	C1941.435913,725.027405 1943.062256,723.525330 1943.014771,719.676575 
	C1942.901611,710.511719 1943.013794,701.344421 1942.986694,692.178162 
	C1942.966553,685.362305 1942.651611,685.023254 1935.990601,685.012939 
	C1917.157959,684.983643 1898.325195,685.012756 1879.492554,684.991882 
	C1872.281982,684.983887 1872.013916,684.741943 1872.010864,677.809448 
	C1871.993530,637.977539 1871.994141,598.145691 1872.009521,558.313782 
	C1872.012207,551.282166 1872.276123,551.030090 1879.375854,551.021423 
	C1898.541748,550.997986 1917.708496,550.917480 1936.873169,551.071533 
	C1941.349487,551.107483 1943.170044,549.627747 1943.057983,545.014221 
	C1942.827393,535.520264 1943.027710,526.016418 1942.978516,516.517029 
	C1942.947388,510.489868 1942.487061,510.030792 1936.323364,510.019043 
	C1917.157349,509.982513 1897.991455,510.020844 1878.825439,509.987640 
	C1872.441406,509.976562 1872.026611,509.556854 1872.014038,503.143280 
	C1871.979248,485.477325 1871.904053,467.810486 1872.055176,450.145813 
	C1872.093506,445.666748 1870.551147,443.832672 1865.959961,443.944519 
	C1856.965698,444.163513 1847.962036,443.977356 1838.962524,444.012756 
	C1832.351196,444.038757 1832.023560,444.374603 1832.013062,451.224976 
	C1831.986450,468.557648 1832.022095,485.890411 1831.986816,503.223053 
	C1831.973999,509.570038 1831.555176,509.970551 1825.095703,509.989044 
	C1811.596313,510.027710 1798.096069,510.089386 1784.597656,509.970032 
	C1780.535278,509.934143 1778.911011,511.526550 1778.971802,515.593811 
	C1779.128540,526.091003 1779.056030,536.591553 1779.169556,547.989929 
M988.000000,221.500000 
	C988.001099,262.996185 987.993225,304.492401 988.012817,345.988586 
	C988.015930,352.565094 988.395386,352.981323 994.673889,352.983398 
	C1053.668579,353.002899 1112.663330,352.956726 1171.657837,353.062408 
	C1176.421631,353.070953 1178.186523,351.418976 1178.062378,346.651917 
	C1177.819214,337.325806 1178.002686,327.988800 1177.994751,318.656311 
	C1177.987427,309.993622 1177.979126,309.977997 1169.514404,309.976837 
	C1125.851685,309.970917 1082.188843,309.976532 1038.526123,309.970886 
	C1030.016968,309.969757 1030.002808,309.954895 1030.002319,301.330505 
	C1029.998413,230.336884 1030.000732,159.343277 1029.999146,88.349655 
	C1029.999023,81.683632 1029.889648,75.015762 1030.016846,68.352295 
	C1030.089722,64.529602 1028.505371,62.935974 1024.667480,62.982170 
	C1015.336487,63.094482 1006.003052,62.998318 996.670593,63.003269 
	C988.020874,63.007858 988.004211,63.017639 988.003235,71.513390 
	C987.997498,121.175591 988.000183,170.837799 988.000000,221.500000 
M821.005493,204.500000 
	C821.005493,402.483612 821.005127,600.467224 821.010071,798.450806 
	C821.010132,800.782837 820.812439,803.163391 821.223694,805.427368 
	C821.443054,806.635010 822.548279,808.234009 823.633789,808.639954 
	C829.543213,810.849854 832.916016,808.438293 832.992737,802.234558 
	C833.013367,800.568298 832.999817,798.901550 832.999817,797.235046 
	C833.000000,581.752808 833.000183,366.270569 832.999756,150.788330 
	C832.999634,105.792046 833.006592,60.795750 832.984985,15.799473 
	C832.981995,9.577498 832.102417,9.028934 826.115234,8.955407 
	C820.658936,8.888398 821.001831,12.407510 821.002258,16.015459 
	C821.009888,78.510307 821.006531,141.005157 821.005493,204.500000 
M1740.924072,106.158539 
	C1740.945679,93.667152 1740.966797,81.175774 1740.989136,68.684387 
	C1740.994141,65.867981 1740.831543,63.095085 1737.009033,63.086964 
	C1721.353516,63.053715 1705.696777,62.986164 1690.045044,63.227093 
	C1688.716675,63.247543 1686.294312,65.446419 1686.283569,66.650223 
	C1686.155151,81.124107 1685.597534,95.663628 1686.737793,110.060440 
	C1687.955688,125.441719 1690.867310,140.688721 1693.033936,155.995117 
	C1694.781372,168.339752 1696.460449,180.694519 1698.307129,193.024246 
	C1698.742920,195.934021 1699.159668,199.092575 1703.491455,198.995636 
	C1710.150024,198.846664 1716.814575,198.931641 1723.476196,198.968384 
	C1726.261963,198.983734 1727.766724,197.811600 1728.117188,194.932846 
	C1728.619141,190.809891 1729.390503,186.720551 1729.984009,182.607819 
	C1733.616821,157.434845 1737.231812,132.259308 1740.924072,106.158539 
z"/>
<path fill="#828282" opacity="1.000000" stroke="none" 
	d="
M264.636749,74.634842 
	C290.474304,66.420670 316.420410,60.742908 343.131042,58.932102 
	C353.409363,58.235291 363.762054,56.588875 373.963715,57.232311 
	C395.327118,58.579742 416.771942,60.144646 437.895294,63.457104 
	C475.198914,69.306877 510.168457,82.567268 543.244324,100.676788 
	C564.590271,112.363976 584.611450,126.046471 602.812439,142.277710 
	C609.877380,148.578018 617.528320,154.382446 623.741638,161.442963 
	C636.773376,176.251556 649.893005,191.118454 661.431763,207.078232 
	C689.177002,245.453720 707.339844,288.210602 717.486694,334.516815 
	C724.383484,365.991272 726.267700,397.808075 724.770447,429.776581 
	C723.142822,464.528839 715.939697,498.389038 703.844727,531.015930 
	C695.040588,554.765991 683.836121,577.431213 669.904541,598.692688 
	C658.318604,616.374329 645.457397,632.965454 631.169861,648.604492 
	C614.933167,666.377014 596.610046,681.554321 577.379578,695.826294 
	C558.709839,709.681946 538.338684,720.639771 517.321289,730.253174 
	C489.842529,742.822144 461.005890,751.538696 431.070831,755.834900 
	C415.319885,758.095520 399.349274,759.094727 383.439362,759.927307 
	C339.680023,762.217346 297.309570,754.799683 256.055695,740.511780 
	C232.563278,732.375427 210.316986,721.549805 189.132263,708.543884 
	C160.879456,691.198669 135.620239,670.086975 113.328064,645.703430 
	C88.739044,618.807434 68.792061,588.541687 53.663033,555.341980 
	C40.434261,526.312256 31.295889,495.904236 26.320044,464.379028 
	C24.485359,452.755096 23.874561,440.921997 23.047848,429.160217 
	C22.418688,420.209045 21.825274,411.204834 22.091768,402.250305 
	C23.070322,369.369476 27.806152,337.090973 37.568253,305.547241 
	C45.927845,278.535339 57.281338,252.926895 71.701828,228.676727 
	C82.682701,210.210785 95.407997,193.002838 109.577080,176.803223 
	C130.749985,152.596085 154.898331,131.823410 181.677475,114.209778 
	C207.352188,97.322578 234.901550,84.077789 264.636749,74.634842 
M622.781189,524.496460 
	C622.783875,438.351257 622.770203,352.206024 622.810364,266.060822 
	C622.815247,255.547195 621.205688,245.446808 615.689941,236.331726 
	C604.670166,218.120941 588.135071,210.204224 567.160889,210.215179 
	C445.857239,210.278488 324.553558,210.245621 203.249878,210.246155 
	C193.085709,210.246201 182.918762,210.099396 172.757889,210.284225 
	C142.035919,210.843094 119.905792,232.635635 119.850060,263.050354 
	C119.683975,353.694550 119.681808,444.339569 119.992409,534.983032 
	C120.017899,542.421692 121.584442,550.458069 124.692764,557.171387 
	C134.440063,578.223328 151.944824,587.677612 174.871017,587.674438 
	C241.354752,587.665283 307.838531,587.699097 374.322113,587.598206 
	C377.962708,587.592651 380.499847,588.621826 382.991394,591.292908 
	C394.696320,603.841431 406.618744,616.186768 418.433929,628.632751 
	C441.021942,652.426758 473.007874,653.011169 496.356842,629.940125 
	C509.512817,616.940735 522.458496,603.727173 535.716858,590.834229 
	C537.494812,589.105286 540.521301,587.919617 543.026184,587.813293 
	C551.675232,587.446106 560.351013,587.780762 569.013428,587.644409 
	C593.847534,587.253601 613.638428,573.580261 620.002197,551.156189 
	C622.317871,542.996399 621.933594,534.070435 622.781189,524.496460 
z"/>
<path fill="#828282" opacity="1.000000" stroke="none" 
	d="
M990.837891,699.030029 
	C989.822510,693.112671 988.135376,687.574219 988.120605,682.031311 
	C987.939148,614.034241 988.228027,546.035339 987.879333,478.039612 
	C987.758484,454.467133 1007.371582,435.571777 1030.200684,435.820251 
	C1082.525879,436.389832 1134.864380,436.312408 1187.191650,435.846405 
	C1207.844116,435.662506 1228.177368,454.659790 1228.007202,476.552094 
	C1227.922974,487.384369 1227.884644,498.219391 1228.043091,509.049957 
	C1228.104614,513.248535 1226.665039,515.123291 1222.263306,515.045227 
	C1212.100220,514.864990 1201.929443,514.866394 1191.766357,515.045288 
	C1187.392334,515.122314 1185.871216,513.307556 1185.956787,509.079315 
	C1186.128784,500.583313 1185.884399,492.079193 1186.031982,483.582245 
	C1186.102783,479.506439 1184.450562,477.964569 1180.397583,477.970276 
	C1132.232788,478.038025 1084.067871,478.053345 1035.903198,477.945343 
	C1031.185669,477.934753 1029.905273,479.936676 1029.946655,484.279999 
	C1030.094360,499.778046 1029.999390,515.278320 1029.999146,530.777771 
	C1029.998291,578.609375 1029.996704,626.440979 1030.000488,674.272583 
	C1030.001221,682.980469 1030.012817,682.997803 1038.453613,682.998901 
	C1084.951904,683.004761 1131.450195,683.005676 1177.948486,682.997131 
	C1185.947510,682.995667 1185.979004,682.946899 1185.996948,674.869263 
	C1186.014282,667.036255 1186.100952,659.201904 1185.982178,651.370789 
	C1185.924438,647.561890 1187.467041,645.943298 1191.317749,645.984741 
	C1201.816162,646.097839 1212.316406,646.034363 1222.815918,646.019958 
	C1225.586304,646.016113 1227.969238,646.577393 1227.907471,650.003418 
	C1227.649658,664.301086 1228.436157,678.732178 1226.730835,692.859741 
	C1224.658203,710.030457 1206.352905,724.888855 1189.035522,724.933960 
	C1135.037842,725.074585 1081.036621,725.307251 1027.043457,724.797363 
	C1009.924683,724.635742 997.735596,715.328857 990.837891,699.030029 
z"/>
<path fill="#828282" opacity="1.000000" stroke="none" 
	d="
M1269.221924,311.991943 
	C1312.172485,311.997559 1354.653442,311.994141 1397.134277,312.005829 
	C1404.861450,312.007965 1404.976929,312.133575 1404.991821,319.816925 
	C1405.009277,328.812836 1404.849609,337.811981 1405.050293,346.803406 
	C1405.149048,351.231903 1403.644897,353.065582 1399.011963,353.054199 
	C1353.699341,352.943176 1308.384644,353.205902 1263.073975,352.882507 
	C1239.878418,352.716980 1223.037476,335.062347 1223.015503,311.882599 
	C1222.973267,267.236023 1223.135376,222.588837 1222.944458,177.943069 
	C1222.857910,157.702805 1237.901855,139.143982 1258.899536,137.867691 
	C1263.540527,137.585602 1268.180298,137.057816 1272.821777,137.045807 
	C1301.975098,136.970352 1331.129150,136.929047 1360.282104,137.061615 
	C1368.276489,137.097961 1376.261963,137.844421 1383.510620,141.788177 
	C1397.000000,149.127335 1404.783081,160.289825 1404.922119,175.824036 
	C1405.171143,203.642624 1405.009033,231.465057 1404.981445,259.285858 
	C1404.975220,265.593475 1404.559448,265.986206 1398.035522,265.989349 
	C1355.721191,266.009613 1313.406982,265.997406 1271.092651,266.007111 
	C1263.055420,266.008942 1263.014526,266.057281 1263.004883,274.086212 
	C1262.992188,284.748077 1263.115967,295.411560 1262.956299,306.070984 
	C1262.893066,310.286255 1264.375977,312.405609 1269.221924,311.991943 
M1307.500000,225.000000 
	C1324.486450,224.998230 1341.473022,225.022018 1358.459351,224.981018 
	C1364.524536,224.966385 1364.962769,224.509232 1364.984985,218.366867 
	C1365.026367,206.876205 1364.888672,195.383835 1365.046021,183.895203 
	C1365.104126,179.653870 1363.567383,177.939117 1359.220459,177.954193 
	C1329.078247,178.058777 1298.935425,178.058472 1268.793213,177.954269 
	C1264.457764,177.939285 1262.897705,179.629822 1262.955688,183.882828 
	C1263.114380,195.538010 1263.134155,207.198792 1262.945557,218.853088 
	C1262.873047,223.326340 1264.441528,225.126984 1269.030884,225.056992 
	C1281.517944,224.866577 1294.010010,224.996826 1307.500000,225.000000 
z"/>
<path fill="#828282" opacity="1.000000" stroke="none" 
	d="
M1544.989746,630.969849 
	C1543.420654,609.609375 1563.623413,590.478271 1584.943359,590.858704 
	C1616.090454,591.414490 1647.254639,591.008057 1678.411621,590.992615 
	C1685.794678,590.988953 1685.975830,590.791687 1685.995605,583.409912 
	C1686.017456,575.245850 1686.013428,567.081726 1685.997314,558.917603 
	C1685.981934,551.140015 1685.881104,551.021118 1678.233032,551.018738 
	C1641.244629,551.007080 1604.256104,551.013489 1567.267700,551.011902 
	C1557.002930,551.011475 1557.000122,551.009033 1557.000854,540.615295 
	C1557.001465,532.284607 1557.116821,523.951965 1556.968628,515.623962 
	C1556.896729,511.585175 1558.476440,509.965363 1562.563110,509.972992 
	C1604.716431,510.051727 1646.872559,509.738281 1689.021973,510.154755 
	C1710.465698,510.366638 1726.919678,528.578064 1726.965088,551.091125 
	C1727.063354,599.742371 1726.998779,648.393982 1726.999512,697.045410 
	C1726.999634,704.376465 1726.861084,711.710693 1727.041016,719.037231 
	C1727.143921,723.225281 1725.689331,725.125000 1721.276733,725.042664 
	C1711.449951,724.859192 1701.615112,724.862793 1691.788086,725.042603 
	C1687.434937,725.122192 1685.837036,723.346069 1685.961914,719.098145 
	C1686.155762,712.510864 1686.013062,705.913635 1686.013062,699.385498 
	C1681.822510,704.643066 1678.181274,709.969543 1673.775513,714.562622 
	C1667.028076,721.596924 1658.444946,724.976807 1648.646606,724.987427 
	C1626.820068,725.011108 1604.993286,725.066711 1583.167236,724.973267 
	C1562.076050,724.883057 1545.258667,708.026001 1544.993652,685.992004 
	C1544.991455,667.043884 1544.990601,649.006897 1544.989746,630.969849 
M1605.500244,685.000000 
	C1630.148438,684.998291 1654.796997,684.927551 1679.444458,685.057617 
	C1683.964966,685.081482 1686.152588,683.867493 1686.070801,678.879700 
	C1685.843994,665.060425 1685.929932,651.234741 1686.020508,637.412415 
	C1686.045166,633.651062 1684.630493,631.854980 1680.738403,631.982727 
	C1676.579712,632.119324 1672.412476,631.993774 1668.249023,631.993652 
	C1642.768066,631.992859 1617.287231,631.979797 1591.806274,632.007629 
	C1585.565063,632.014465 1585.042358,632.494141 1585.022217,638.365356 
	C1584.975342,652.021606 1585.084595,665.678711 1584.967773,679.334167 
	C1584.933594,683.325623 1586.376953,685.179077 1590.512817,685.024475 
	C1595.169189,684.850464 1599.837524,684.994385 1605.500244,685.000000 
z"/>
<path fill="#828282" opacity="1.000000" stroke="none" 
	d="
M1328.998779,450.000061 
	C1328.998779,479.550415 1328.998779,508.600800 1328.998779,537.651184 
	C1333.178345,529.039612 1338.239624,521.676208 1346.168823,516.487671 
	C1352.619507,512.266541 1359.719116,510.095123 1367.335083,510.057220 
	C1391.830078,509.935242 1416.327393,509.859100 1440.821411,510.058807 
	C1462.213501,510.233215 1478.982300,527.377014 1478.990967,548.728699 
	C1479.013428,604.718872 1479.001953,660.709045 1478.996094,716.699219 
	C1478.995239,724.975037 1478.975098,724.983826 1470.614502,724.994690 
	C1462.449219,725.005371 1454.283936,725.020508 1446.118774,724.987122 
	C1439.346802,724.959473 1439.017090,724.658203 1439.014526,717.929260 
	C1438.996338,668.604614 1439.002930,619.279907 1439.000366,569.955261 
	C1439.000244,565.456055 1438.884766,560.953857 1439.016602,556.458679 
	C1439.126221,552.717224 1437.689697,550.988647 1433.769897,550.996521 
	C1400.609253,551.063171 1367.448242,551.089172 1334.287964,550.977051 
	C1329.004883,550.959229 1328.978027,554.137573 1328.981567,557.899597 
	C1329.014160,593.060059 1329.000122,628.220581 1328.998657,663.381042 
	C1328.997803,681.711182 1329.018188,700.041321 1328.980103,718.371399 
	C1328.967407,724.510315 1328.519287,724.944275 1322.437622,724.980286 
	C1313.939453,725.030518 1305.440674,725.008545 1296.942139,724.992798 
	C1289.135742,724.978394 1289.011841,724.871216 1289.006592,717.256958 
	C1288.991089,694.927551 1289.000000,672.598083 1289.000000,650.268677 
	C1289.000000,578.781250 1288.998657,507.293793 1289.002197,435.806335 
	C1289.002563,427.001648 1289.014893,426.994751 1297.849243,426.989746 
	C1306.347778,426.984894 1314.848145,427.103729 1323.343872,426.953644 
	C1327.355103,426.882782 1329.151978,428.375702 1329.025757,432.504456 
	C1328.853027,438.164642 1328.992798,443.834412 1328.998779,450.000061 
z"/>
<path fill="#828282" opacity="1.000000" stroke="none" 
	d="
M1927.000000,177.997650 
	C1900.833740,177.998215 1875.167603,177.988388 1849.501343,178.005981 
	C1842.200439,178.010986 1842.017944,178.212723 1842.004517,185.679825 
	C1841.985962,196.012924 1842.168945,206.349915 1841.931274,216.677551 
	C1841.821045,221.470642 1843.622803,223.087448 1848.362305,223.064697 
	C1877.527710,222.924789 1906.702148,223.416016 1935.857788,222.864563 
	C1957.898315,222.447678 1975.116211,240.516113 1975.850098,261.760895 
	C1976.436646,278.740265 1976.270020,295.762421 1975.901245,312.753937 
	C1975.403809,335.683838 1958.343262,352.640015 1934.781372,352.859650 
	C1891.952637,353.258789 1849.117554,352.951324 1806.285156,353.028931 
	C1802.445679,353.035858 1800.914551,351.641327 1800.974731,347.758667 
	C1801.124390,338.094604 1800.985962,328.426422 1801.021729,318.760101 
	C1801.045410,312.354431 1801.373291,312.016693 1807.872314,312.013214 
	C1846.704956,311.992340 1885.537598,312.001312 1924.370239,311.999390 
	C1926.036865,311.999329 1927.712891,311.874420 1929.368286,312.008026 
	C1933.870728,312.371429 1935.087280,310.042450 1935.040649,305.945496 
	C1934.902588,293.780640 1935.026733,281.613068 1934.979492,269.446808 
	C1934.956299,263.490936 1934.467285,263.021545 1928.263062,263.015564 
	C1899.430176,262.987732 1870.588135,262.561981 1841.768188,263.173645 
	C1826.028564,263.507690 1807.413940,252.729309 1802.509277,233.064896 
	C1801.632812,229.550888 1801.167603,225.828552 1801.206665,222.209915 
	C1801.395386,204.738495 1800.705444,187.154785 1802.488281,169.833328 
	C1804.155273,153.636017 1818.988525,138.785034 1836.196777,138.120102 
	C1858.483887,137.258926 1880.806274,137.225311 1903.115112,137.040680 
	C1922.280029,136.882050 1941.448364,137.112686 1960.613159,136.942139 
	C1965.333862,136.900131 1967.196167,138.501144 1967.065308,143.314499 
	C1966.816284,152.474182 1967.019287,161.645584 1966.989502,170.811981 
	C1966.967285,177.632858 1966.652832,177.963623 1959.999268,177.985214 
	C1949.166260,178.020370 1938.333130,177.996567 1927.000000,177.997650 
z"/>
<path fill="#828282" opacity="1.000000" stroke="none" 
	d="
M1578.000000,137.007324 
	C1590.498657,137.009171 1602.499390,137.143768 1614.494751,136.945435 
	C1619.091187,136.869446 1621.195068,138.264633 1621.065796,143.192520 
	C1620.812500,152.851471 1620.866455,162.523956 1621.044434,172.186218 
	C1621.124146,176.516495 1619.390869,178.069275 1615.124634,178.041885 
	C1596.127686,177.919830 1577.129272,177.979828 1558.131470,178.009247 
	C1551.348389,178.019745 1551.013306,178.341492 1551.010254,185.048965 
	C1550.991943,225.044418 1550.991577,265.039856 1551.011108,305.035309 
	C1551.014404,311.649170 1551.372925,311.979919 1558.216919,311.989319 
	C1576.881470,312.014954 1595.546021,311.981171 1614.210571,312.015198 
	C1620.568726,312.026794 1620.962646,312.443817 1620.986572,318.894379 
	C1621.021851,328.393127 1620.889404,337.893616 1621.032104,347.390320 
	C1621.093018,351.440369 1619.504028,353.051331 1615.425537,353.031158 
	C1593.928589,352.924896 1572.424072,353.301178 1550.935669,352.860077 
	C1533.735352,352.506958 1520.484619,344.849365 1513.490967,328.636230 
	C1511.382202,323.747559 1510.184082,318.070648 1510.150513,312.744873 
	C1509.884277,270.584656 1510.004517,228.422043 1509.995972,186.260162 
	C1509.994263,178.020004 1509.974243,178.009430 1501.578857,178.000824 
	C1489.080322,177.988007 1476.579834,177.867920 1464.084106,178.054016 
	C1459.540405,178.121689 1457.845703,176.420029 1457.945312,171.893997 
	C1458.154297,162.399704 1458.173218,152.893448 1457.936401,143.400421 
	C1457.818726,138.681137 1459.483521,136.854782 1464.300171,136.939713 
	C1476.794800,137.160004 1489.296021,137.018173 1501.794556,137.003265 
	C1509.978760,136.993500 1509.991577,136.979782 1509.996948,128.526688 
	C1510.007690,111.528633 1509.977661,94.530495 1510.019043,77.532524 
	C1510.033691,71.478752 1510.489014,71.052429 1516.652222,71.023300 
	C1525.984375,70.979187 1535.321289,71.187325 1544.646973,70.941551 
	C1549.405884,70.816132 1551.116455,72.551254 1551.065674,77.331291 
	C1550.879639,94.827286 1550.981323,112.326538 1551.009155,129.824509 
	C1551.019897,136.636536 1551.349854,136.959061 1558.002563,136.996307 
	C1564.501587,137.032700 1571.000854,137.006195 1578.000000,137.007324 
z"/>
<path fill="#828282" opacity="1.000000" stroke="none" 
	d="
M1779.122437,547.540344 
	C1779.056030,536.591553 1779.128540,526.091003 1778.971802,515.593811 
	C1778.911011,511.526550 1780.535278,509.934143 1784.597656,509.970032 
	C1798.096069,510.089386 1811.596313,510.027710 1825.095703,509.989044 
	C1831.555176,509.970551 1831.973999,509.570038 1831.986816,503.223053 
	C1832.022095,485.890411 1831.986450,468.557648 1832.013062,451.224976 
	C1832.023560,444.374603 1832.351196,444.038757 1838.962524,444.012756 
	C1847.962036,443.977356 1856.965698,444.163513 1865.959961,443.944519 
	C1870.551147,443.832672 1872.093506,445.666748 1872.055176,450.145813 
	C1871.904053,467.810486 1871.979248,485.477325 1872.014038,503.143280 
	C1872.026611,509.556854 1872.441406,509.976562 1878.825439,509.987640 
	C1897.991455,510.020844 1917.157349,509.982513 1936.323364,510.019043 
	C1942.487061,510.030792 1942.947388,510.489868 1942.978516,516.517029 
	C1943.027710,526.016418 1942.827393,535.520264 1943.057983,545.014221 
	C1943.170044,549.627747 1941.349487,551.107483 1936.873169,551.071533 
	C1917.708496,550.917480 1898.541748,550.997986 1879.375854,551.021423 
	C1872.276123,551.030090 1872.012207,551.282166 1872.009521,558.313782 
	C1871.994141,598.145691 1871.993530,637.977539 1872.010864,677.809448 
	C1872.013916,684.741943 1872.281982,684.983887 1879.492554,684.991882 
	C1898.325195,685.012756 1917.157959,684.983643 1935.990601,685.012939 
	C1942.651611,685.023254 1942.966553,685.362305 1942.986694,692.178162 
	C1943.013794,701.344421 1942.901611,710.511719 1943.014771,719.676575 
	C1943.062256,723.525330 1941.435913,725.027405 1937.628906,725.014282 
	C1914.296875,724.933716 1890.956421,725.336975 1867.634644,724.838379 
	C1848.834106,724.436523 1832.043701,706.533875 1832.020386,687.791931 
	C1831.967041,644.960205 1832.005737,602.128357 1831.998291,559.296570 
	C1831.996826,551.034668 1831.978516,551.023743 1823.608276,551.015503 
	C1810.775391,551.002991 1797.939819,551.136414 1785.112427,550.869629 
	C1783.112427,550.828064 1781.149536,548.994751 1779.122437,547.540344 
z"/>
<path fill="#828282" opacity="1.000000" stroke="none" 
	d="
M988.000000,221.000000 
	C988.000183,170.837799 987.997498,121.175591 988.003235,71.513390 
	C988.004211,63.017639 988.020874,63.007858 996.670593,63.003269 
	C1006.003052,62.998318 1015.336487,63.094482 1024.667480,62.982170 
	C1028.505371,62.935974 1030.089722,64.529602 1030.016846,68.352295 
	C1029.889648,75.015762 1029.999023,81.683632 1029.999146,88.349655 
	C1030.000732,159.343277 1029.998413,230.336884 1030.002319,301.330505 
	C1030.002808,309.954895 1030.016968,309.969757 1038.526123,309.970886 
	C1082.188843,309.976532 1125.851685,309.970917 1169.514404,309.976837 
	C1177.979126,309.977997 1177.987427,309.993622 1177.994751,318.656311 
	C1178.002686,327.988800 1177.819214,337.325806 1178.062378,346.651917 
	C1178.186523,351.418976 1176.421631,353.070953 1171.657837,353.062408 
	C1112.663330,352.956726 1053.668579,353.002899 994.673889,352.983398 
	C988.395386,352.981323 988.015930,352.565094 988.012817,345.988586 
	C987.993225,304.492401 988.001099,262.996185 988.000000,221.000000 
z"/>
<path fill="#828282" opacity="1.000000" stroke="none" 
	d="
M821.005493,204.000000 
	C821.006531,141.005157 821.009888,78.510307 821.002258,16.015459 
	C821.001831,12.407510 820.658936,8.888398 826.115234,8.955407 
	C832.102417,9.028934 832.981995,9.577498 832.984985,15.799473 
	C833.006592,60.795750 832.999634,105.792046 832.999756,150.788330 
	C833.000183,366.270569 833.000000,581.752808 832.999817,797.235046 
	C832.999817,798.901550 833.013367,800.568298 832.992737,802.234558 
	C832.916016,808.438293 829.543213,810.849854 823.633789,808.639954 
	C822.548279,808.234009 821.443054,806.635010 821.223694,805.427368 
	C820.812439,803.163391 821.010132,800.782837 821.010071,798.450806 
	C821.005127,600.467224 821.005493,402.483612 821.005493,204.000000 
z"/>
<path fill="#828282" opacity="1.000000" stroke="none" 
	d="
M1740.888428,106.621590 
	C1737.231812,132.259308 1733.616821,157.434845 1729.984009,182.607819 
	C1729.390503,186.720551 1728.619141,190.809891 1728.117188,194.932846 
	C1727.766724,197.811600 1726.261963,198.983734 1723.476196,198.968384 
	C1716.814575,198.931641 1710.150024,198.846664 1703.491455,198.995636 
	C1699.159668,199.092575 1698.742920,195.934021 1698.307129,193.024246 
	C1696.460449,180.694519 1694.781372,168.339752 1693.033936,155.995117 
	C1690.867310,140.688721 1687.955688,125.441719 1686.737793,110.060440 
	C1685.597534,95.663628 1686.155151,81.124107 1686.283569,66.650223 
	C1686.294312,65.446419 1688.716675,63.247543 1690.045044,63.227093 
	C1705.696777,62.986164 1721.353516,63.053715 1737.009033,63.086964 
	C1740.831543,63.095085 1740.994141,65.867981 1740.989136,68.684387 
	C1740.966797,81.175774 1740.945679,93.667152 1740.888428,106.621590 
z"/>
<path fill="#999999" opacity="1.000000" stroke="none" 
	d="
M1544.728882,631.299683 
	C1544.990601,649.006897 1544.991455,667.043884 1544.990601,685.551147 
	C1544.716309,685.432495 1544.203857,684.842773 1544.205688,684.254761 
	C1544.261841,666.712952 1544.368896,649.171204 1544.728882,631.299683 
z"/>
<path fill="#F9F9F9" opacity="1.000000" stroke="none" 
	d="
M622.781189,524.995239 
	C621.933594,534.070435 622.317871,542.996399 620.002197,551.156189 
	C613.638428,573.580261 593.847534,587.253601 569.013428,587.644409 
	C560.351013,587.780762 551.675232,587.446106 543.026184,587.813293 
	C540.521301,587.919617 537.494812,589.105286 535.716858,590.834229 
	C522.458496,603.727173 509.512817,616.940735 496.356842,629.940125 
	C473.007874,653.011169 441.021942,652.426758 418.433929,628.632751 
	C406.618744,616.186768 394.696320,603.841431 382.991394,591.292908 
	C380.499847,588.621826 377.962708,587.592651 374.322113,587.598206 
	C307.838531,587.699097 241.354752,587.665283 174.871017,587.674438 
	C151.944824,587.677612 134.440063,578.223328 124.692764,557.171387 
	C121.584442,550.458069 120.017899,542.421692 119.992409,534.983032 
	C119.681808,444.339569 119.683975,353.694550 119.850060,263.050354 
	C119.905792,232.635635 142.035919,210.843094 172.757889,210.284225 
	C182.918762,210.099396 193.085709,210.246201 203.249878,210.246155 
	C324.553558,210.245621 445.857239,210.278488 567.160889,210.215179 
	C588.135071,210.204224 604.670166,218.120941 615.689941,236.331726 
	C621.205688,245.446808 622.815247,255.547195 622.810364,266.060822 
	C622.770203,352.206024 622.783875,438.351257 622.781189,524.995239 
M568.979065,262.268402 
	C568.479614,262.243927 567.980103,262.198059 567.480652,262.198029 
	C437.179932,262.191528 306.879211,262.187195 176.578506,262.198608 
	C175.130051,262.198730 173.681641,262.405334 172.034607,262.530640 
	C172.034607,353.639618 172.034607,444.362732 172.034607,535.748413 
	C174.643845,535.748413 176.927780,535.748291 179.211716,535.748291 
	C251.526962,535.748352 323.842255,535.779968 396.157318,535.664734 
	C400.177521,535.658386 402.912170,536.856934 405.653656,539.777771 
	C421.730927,556.906494 438.036957,573.820251 454.160278,590.906067 
	C455.370697,592.188721 455.758362,594.247864 456.528503,595.946045 
	C457.398041,595.548889 458.267548,595.151733 459.137085,594.754639 
	C460.251495,593.290527 461.216003,591.677185 462.502930,590.384949 
	C479.434631,573.384155 496.472748,556.488770 513.315552,539.400696 
	C516.015747,536.661194 518.749634,535.630066 522.515198,535.677368 
	C536.676086,535.855103 550.840515,535.757751 565.003662,535.735901 
	C566.781677,535.733154 568.559448,535.565735 570.617798,535.460266 
	C570.709595,533.376221 570.843872,531.747925 570.844055,530.119629 
	C570.854187,442.641510 570.858643,355.163422 570.811768,267.685333 
	C570.810791,265.957367 570.192688,264.229736 568.979065,262.268402 
z"/>
<path fill="#4C6971" opacity="1.000000" stroke="none" 
	d="
M1307.000000,225.000000 
	C1294.010010,224.996826 1281.517944,224.866577 1269.030884,225.056992 
	C1264.441528,225.126984 1262.873047,223.326340 1262.945557,218.853088 
	C1263.134155,207.198792 1263.114380,195.538010 1262.955688,183.882828 
	C1262.897705,179.629822 1264.457764,177.939285 1268.793213,177.954269 
	C1298.935425,178.058472 1329.078247,178.058777 1359.220459,177.954193 
	C1363.567383,177.939117 1365.104126,179.653870 1365.046021,183.895203 
	C1364.888672,195.383835 1365.026367,206.876205 1364.984985,218.366867 
	C1364.962769,224.509232 1364.524536,224.966385 1358.459351,224.981018 
	C1341.473022,225.022018 1324.486450,224.998230 1307.000000,225.000000 
z"/>
<path fill="#4C6971" opacity="1.000000" stroke="none" 
	d="
M1605.000488,685.000000 
	C1599.837524,684.994385 1595.169189,684.850464 1590.512817,685.024475 
	C1586.376953,685.179077 1584.933594,683.325623 1584.967773,679.334167 
	C1585.084595,665.678711 1584.975342,652.021606 1585.022217,638.365356 
	C1585.042358,632.494141 1585.565063,632.014465 1591.806274,632.007629 
	C1617.287231,631.979797 1642.768066,631.992859 1668.249023,631.993652 
	C1672.412476,631.993774 1676.579712,632.119324 1680.738403,631.982727 
	C1684.630493,631.854980 1686.045166,633.651062 1686.020508,637.412415 
	C1685.929932,651.234741 1685.843994,665.060425 1686.070801,678.879700 
	C1686.152588,683.867493 1683.964966,685.081482 1679.444458,685.057617 
	C1654.796997,684.927551 1630.148438,684.998291 1605.000488,685.000000 
z"/>
<path fill="#828282" opacity="1.000000" stroke="none" 
	d="
M569.420776,262.385193 
	C570.192688,264.229736 570.810791,265.957367 570.811768,267.685333 
	C570.858643,355.163422 570.854187,442.641510 570.844055,530.119629 
	C570.843872,531.747925 570.709595,533.376221 570.617798,535.460266 
	C568.559448,535.565735 566.781677,535.733154 565.003662,535.735901 
	C550.840515,535.757751 536.676086,535.855103 522.515198,535.677368 
	C518.749634,535.630066 516.015747,536.661194 513.315552,539.400696 
	C496.472748,556.488770 479.434631,573.384155 462.502930,590.384949 
	C461.216003,591.677185 460.251495,593.290527 459.137085,594.754639 
	C458.267548,595.151733 457.398041,595.548889 456.528503,595.946045 
	C455.758362,594.247864 455.370697,592.188721 454.160278,590.906067 
	C438.036957,573.820251 421.730927,556.906494 405.653656,539.777771 
	C402.912170,536.856934 400.177521,535.658386 396.157318,535.664734 
	C323.842255,535.779968 251.526962,535.748352 179.211716,535.748291 
	C176.927780,535.748291 174.643845,535.748413 172.034607,535.748413 
	C172.034607,444.362732 172.034607,353.639618 172.034607,262.530640 
	C173.681641,262.405334 175.130051,262.198730 176.578506,262.198608 
	C306.879211,262.187195 437.179932,262.191528 567.480652,262.198029 
	C567.980103,262.198059 568.479614,262.243927 569.420776,262.385193 
M348.386230,436.247192 
	C330.726013,434.003632 313.915131,428.892578 297.870483,421.226685 
	C278.393311,411.920776 261.582550,399.043488 246.698486,383.458801 
	C240.122604,376.573395 229.738724,376.529663 223.334259,382.754791 
	C216.790115,389.115753 216.703629,399.016418 223.429749,406.024933 
	C228.385666,411.188873 233.342697,416.442200 238.875000,420.948822 
	C304.104065,474.083893 375.884613,484.564880 453.585693,452.775757 
	C478.888000,442.424072 500.322662,425.996033 518.972717,406.028046 
	C525.684021,398.842468 525.665588,389.120789 519.160522,382.716034 
	C512.665833,376.321533 502.446075,376.691498 495.400787,383.596283 
	C493.853973,385.112244 492.410583,386.734680 490.847565,388.233002 
	C451.143188,426.293488 404.012665,442.528198 348.386230,436.247192 
M305.580841,375.295898 
	C320.631989,378.773804 334.172699,372.090851 337.943542,359.323425 
	C341.817749,346.206024 335.086578,333.115906 322.303650,328.908600 
	C308.421478,324.339478 293.814301,330.922241 289.425873,343.724976 
	C284.899780,356.929382 291.247833,369.881744 305.580841,375.295898 
M432.152985,376.089142 
	C433.138184,375.939209 434.142792,375.867310 435.105621,375.627533 
	C448.543365,372.281342 455.728333,361.790039 453.978180,348.106506 
	C452.426331,335.973267 441.774994,327.397095 428.461853,327.561340 
	C414.985443,327.727631 405.018463,336.476990 403.602783,349.383453 
	C401.854340,365.323364 413.812836,376.910370 432.152985,376.089142 
z"/>
<path fill="#F9F9F9" opacity="1.000000" stroke="none" 
	d="
M348.828735,436.309753 
	C404.012665,442.528198 451.143188,426.293488 490.847565,388.233002 
	C492.410583,386.734680 493.853973,385.112244 495.400787,383.596283 
	C502.446075,376.691498 512.665833,376.321533 519.160522,382.716034 
	C525.665588,389.120789 525.684021,398.842468 518.972717,406.028046 
	C500.322662,425.996033 478.888000,442.424072 453.585693,452.775757 
	C375.884613,484.564880 304.104065,474.083893 238.875000,420.948822 
	C233.342697,416.442200 228.385666,411.188873 223.429749,406.024933 
	C216.703629,399.016418 216.790115,389.115753 223.334259,382.754791 
	C229.738724,376.529663 240.122604,376.573395 246.698486,383.458801 
	C261.582550,399.043488 278.393311,411.920776 297.870483,421.226685 
	C313.915131,428.892578 330.726013,434.003632 348.828735,436.309753 
z"/>
<path fill="#F9F9F9" opacity="1.000000" stroke="none" 
	d="
M305.183960,375.181763 
	C291.247833,369.881744 284.899780,356.929382 289.425873,343.724976 
	C293.814301,330.922241 308.421478,324.339478 322.303650,328.908600 
	C335.086578,333.115906 341.817749,346.206024 337.943542,359.323425 
	C334.172699,372.090851 320.631989,378.773804 305.183960,375.181763 
z"/>
<path fill="#F9F9F9" opacity="1.000000" stroke="none" 
	d="
M431.699463,376.128479 
	C413.812836,376.910370 401.854340,365.323364 403.602783,349.383453 
	C405.018463,336.476990 414.985443,327.727631 428.461853,327.561340 
	C441.774994,327.397095 452.426331,335.973267 453.978180,348.106506 
	C455.728333,361.790039 448.543365,372.281342 435.105621,375.627533 
	C434.142792,375.867310 433.138184,375.939209 431.699463,376.128479 
z"/>
</svg>